<svg width="91" height="85" viewBox="0 0 91 85" fill="none" xmlns="http://www.w3.org/2000/svg">
<path d="M21.1508 75.6078C21.1508 75.6078 22.532 64.3154 23.3258 61.8483C24.1197 59.3813 23.895 35.7465 23.9203 35.5067C23.9457 35.2669 11.1676 41.6506 10.0511 43.5509C8.93459 45.4511 11.8418 57.8444 11.0262 59.6356C10.2106 61.4269 7.55347 69.2749 7.55347 69.2749L21.1508 75.6078Z" fill="white"/>
<path d="M21.1509 75.7894C21.1246 75.7886 21.0987 75.7824 21.0748 75.7713L7.47379 69.4384C7.43257 69.4206 7.39956 69.3879 7.38141 69.3468C7.36325 69.3057 7.36129 69.2592 7.37591 69.2167C7.48466 68.8934 10.0512 61.336 10.8595 59.5593C11.222 58.7709 10.7725 55.5082 10.3375 52.3544C9.81191 48.5067 9.25003 44.5282 9.89166 43.46C10.5333 42.3918 14.209 40.2591 17.2105 38.6277C18.1965 38.0936 23.6232 35.2233 23.9712 35.3286C24.0112 35.3423 24.0455 35.3691 24.0685 35.4047C24.0915 35.4403 24.1019 35.4826 24.098 35.5248C24.098 35.5793 24.098 36.2188 24.098 37.0981C24.1162 42.7116 24.1705 59.7882 23.489 61.9065C22.7133 64.3263 21.343 75.5169 21.314 75.6296C21.3066 75.673 21.2846 75.7125 21.2516 75.7416C21.2186 75.7707 21.1767 75.7876 21.1328 75.7894H21.1509ZM7.77466 69.1768L21.0023 75.3534C21.2125 73.6458 22.416 64.0901 23.1483 61.812C23.5869 60.4459 23.7863 52.1364 23.7392 37.1053C23.7392 36.3787 23.7392 35.9717 23.7392 35.7501C22.0572 36.4186 11.2003 41.9522 10.207 43.649C9.64516 44.6082 10.207 48.6993 10.7037 52.3072C11.1822 55.8061 11.5954 58.8472 11.193 59.7156C10.4499 61.3324 8.16254 68.0686 7.77466 69.1768Z" fill="#231F20"/>
<path d="M20.9478 85.5231L23.1337 70.9171L8.26759 63.5415L0.756592 84.7856L20.9478 85.5231Z" fill="#231F20"/>
<path d="M20.9479 85.7048L0.760256 84.9781C0.731752 84.978 0.703696 84.971 0.678459 84.9577C0.653221 84.9445 0.631543 84.9253 0.615255 84.9018C0.599532 84.878 0.589405 84.8509 0.585638 84.8226C0.58187 84.7943 0.584562 84.7655 0.593506 84.7383L8.09725 63.4833C8.10672 63.4595 8.12092 63.4379 8.13899 63.4198C8.15705 63.4017 8.17861 63.3874 8.20234 63.3779C8.22608 63.3684 8.2515 63.3638 8.27706 63.3644C8.30261 63.3651 8.32777 63.3709 8.351 63.3816L23.2135 70.7573C23.2486 70.7734 23.2775 70.8006 23.2958 70.8347C23.3142 70.8688 23.3209 70.9079 23.315 70.9462L21.14 85.5522C21.1321 85.5968 21.1082 85.6369 21.0728 85.665C21.0374 85.6931 20.993 85.7073 20.9479 85.7048ZM1.01038 84.6148L20.792 85.3415L22.9344 71.0261L8.37276 63.7958L1.01038 84.6148Z" fill="#231F20"/>
<path d="M68.8704 7.2793H23.4274C22.1461 7.2793 21.1074 8.32039 21.1074 9.60464V69.9071C21.1074 71.1913 22.1461 72.2324 23.4274 72.2324H68.8704C70.1517 72.2324 71.1904 71.1913 71.1904 69.9071V9.60464C71.1904 8.32039 70.1517 7.2793 68.8704 7.2793Z" fill="white"/>
<path d="M68.8703 72.4177H23.4237C22.7612 72.4158 22.1265 72.1509 21.6584 71.6811C21.1903 71.2112 20.927 70.5747 20.926 69.9107V9.59737C20.927 8.93339 21.1903 8.29684 21.6584 7.827C22.1265 7.35715 22.7612 7.09229 23.4237 7.09037H68.8703C69.5334 7.09133 70.169 7.35577 70.6379 7.82571C71.1067 8.29566 71.3706 8.93277 71.3715 9.59737V69.9107C71.3706 70.5753 71.1067 71.2124 70.6379 71.6824C70.169 72.1523 69.5334 72.4167 68.8703 72.4177ZM23.4237 7.46097C22.857 7.46193 22.314 7.68821 21.9137 8.09012C21.5134 8.49203 21.2885 9.03673 21.2885 9.60464V69.918C21.2885 70.4859 21.5134 71.0306 21.9137 71.4325C22.314 71.8344 22.857 72.0607 23.4237 72.0616H68.8703C69.4372 72.0607 69.9807 71.8345 70.3815 71.4327C70.7824 71.0309 71.0081 70.4862 71.009 69.918V9.60464C71.0081 9.0364 70.7824 8.4917 70.3815 8.0899C69.9807 7.68809 69.4372 7.46193 68.8703 7.46097H23.4237Z" fill="#231F20"/>
<path d="M68.1199 11.2614H24.1741V68.2575H68.1199V11.2614Z" fill="white"/>
<path d="M68.12 68.4392H24.1742C24.1261 68.4392 24.08 68.4201 24.046 68.386C24.012 68.3519 23.9929 68.3057 23.9929 68.2575V11.2614C23.9929 11.2133 24.012 11.1671 24.046 11.133C24.08 11.0989 24.1261 11.0798 24.1742 11.0798H68.12C68.1681 11.0798 68.2142 11.0989 68.2482 11.133C68.2822 11.1671 68.3013 11.2133 68.3013 11.2614V68.2575C68.3013 68.3057 68.2822 68.3519 68.2482 68.386C68.2142 68.4201 68.1681 68.4392 68.12 68.4392ZM24.3554 68.0759H67.9388V11.4431H24.3554V68.0759Z" fill="#231F20"/>
<path d="M57.6329 4.98667H51.3C51.0676 3.78486 50.4253 2.70156 49.483 1.92262C48.5408 1.14368 47.3575 0.717667 46.1362 0.717667C44.9148 0.717667 43.7315 1.14368 42.7893 1.92262C41.8471 2.70156 41.2047 3.78486 40.9724 4.98667H34.6649C34.2627 4.98667 33.8769 5.14656 33.5921 5.43128C33.3074 5.71599 33.147 6.10228 33.146 6.5054V11.7992C33.147 12.2023 33.3074 12.5886 33.5921 12.8733C33.8769 13.158 34.2627 13.3179 34.6649 13.3179H57.6329C58.0347 13.3179 58.4201 13.1579 58.7043 12.8731C58.9885 12.5883 59.1481 12.202 59.1481 11.7992V6.50177C59.1472 6.09961 58.9871 5.71424 58.703 5.43021C58.419 5.14618 58.0341 4.98667 57.6329 4.98667ZM46.1489 5.677C45.882 5.67772 45.6209 5.59906 45.3987 5.45099C45.1765 5.30291 45.0031 5.09207 44.9004 4.84516C44.7978 4.59825 44.7706 4.32638 44.8222 4.06395C44.8738 3.80153 45.002 3.56036 45.1904 3.37097C45.3789 3.18158 45.6192 3.05249 45.8808 3.00005C46.1425 2.9476 46.4138 2.97415 46.6605 3.07634C46.9071 3.17854 47.1179 3.35177 47.2662 3.57412C47.4146 3.79647 47.4937 4.05793 47.4937 4.3254C47.4928 4.68295 47.3509 5.02563 47.099 5.27879C46.8471 5.53196 46.5056 5.67509 46.1489 5.677Z" fill="#68E1FD"/>
<path d="M41.1064 29.4971H30.4924C30.4482 29.4971 30.4058 29.4795 30.3745 29.4482C30.3433 29.4168 30.3257 29.3743 30.3257 29.33V17.9613C30.3257 17.917 30.3433 17.8745 30.3745 17.8431C30.4058 17.8118 30.4482 17.7942 30.4924 17.7942H41.1064C41.1504 17.7951 41.1922 17.813 41.2233 17.8442C41.2544 17.8753 41.2723 17.9173 41.2732 17.9613V29.33C41.2723 29.374 41.2544 29.416 41.2233 29.4472C41.1922 29.4783 41.1504 29.4962 41.1064 29.4971ZM30.6592 29.1592H40.9397V18.1284H30.6592V29.1592Z" fill="#D1D3D4"/>
<path d="M43.5934 20.7408C43.5376 20.835 43.4733 20.9238 43.4012 21.006L36.5427 27.8767C36.5081 27.9314 36.4601 27.9766 36.4034 28.0078C36.3467 28.0391 36.283 28.0554 36.2183 28.0554C36.1536 28.0554 36.0899 28.0391 36.0332 28.0078C35.9765 27.9766 35.9285 27.9314 35.8939 27.8767L32.0369 23.88C31.9847 23.8458 31.9422 23.7986 31.9135 23.7432C31.8848 23.6877 31.8708 23.6257 31.873 23.5632C31.8752 23.5007 31.8934 23.4399 31.926 23.3866C31.9585 23.3332 32.0042 23.2892 32.0586 23.2587L33.0265 22.3867C33.0602 22.3409 33.1041 22.3036 33.1548 22.278C33.2055 22.2523 33.2615 22.2389 33.3183 22.2389C33.3751 22.2389 33.4311 22.2523 33.4818 22.278C33.5325 22.3036 33.5764 22.3409 33.6101 22.3867C34.3665 23.1642 35.1266 23.9406 35.8902 24.7157C35.9254 24.7704 35.9736 24.8155 36.0306 24.8466C36.0876 24.8778 36.1515 24.8942 36.2165 24.8942C36.2814 24.8942 36.3453 24.8778 36.4023 24.8466C36.4593 24.8155 36.5076 24.7704 36.5427 24.7157L41.8751 19.4146C41.9103 19.3622 41.9577 19.3192 42.0134 19.2895C42.069 19.2598 42.1311 19.2442 42.1941 19.2442C42.2572 19.2442 42.3192 19.2598 42.3749 19.2895C42.4305 19.3192 42.478 19.3622 42.5131 19.4146C42.814 19.7198 43.1149 20.0214 43.4121 20.3266C43.4789 20.4075 43.5407 20.4924 43.597 20.5809L43.5934 20.7408Z" fill="#68E1FD"/>
<path d="M62.6028 22.027H47.3597C47.3192 22.021 47.2823 22.0007 47.2555 21.9697C47.2288 21.9387 47.2141 21.899 47.2141 21.8581C47.2141 21.8171 47.2288 21.7774 47.2555 21.7464C47.2823 21.7154 47.3192 21.6951 47.3597 21.6891H62.6028C62.6433 21.6951 62.6802 21.7154 62.707 21.7464C62.7337 21.7774 62.7484 21.8171 62.7484 21.8581C62.7484 21.899 62.7337 21.9387 62.707 21.9697C62.6802 22.0007 62.6433 22.021 62.6028 22.027Z" fill="#D1D3D4"/>
<path d="M58.55 25.5986H47.3596C47.3154 25.5986 47.273 25.581 47.2417 25.5496C47.2104 25.5183 47.1929 25.4758 47.1929 25.4314C47.1929 25.3871 47.2104 25.3446 47.2417 25.3133C47.273 25.2819 47.3154 25.2643 47.3596 25.2643H58.55C58.5942 25.2643 58.6366 25.2819 58.6679 25.3133C58.6992 25.3446 58.7167 25.3871 58.7167 25.4314C58.7167 25.4758 58.6992 25.5183 58.6679 25.5496C58.6366 25.581 58.5942 25.5986 58.55 25.5986Z" fill="#D1D3D4"/>
<path d="M41.1065 45.0187H30.4925C30.4704 45.0192 30.4485 45.0152 30.4281 45.007C30.4076 44.9988 30.389 44.9865 30.3735 44.9709C30.3579 44.9553 30.3456 44.9366 30.3374 44.9161C30.3292 44.8956 30.3252 44.8737 30.3257 44.8516V33.4865C30.3257 33.4422 30.3433 33.3997 30.3746 33.3684C30.4058 33.337 30.4483 33.3194 30.4925 33.3194H41.1065C41.1504 33.3203 41.1923 33.3382 41.2234 33.3694C41.2544 33.4005 41.2723 33.4425 41.2732 33.4865V44.8516C41.2732 44.8959 41.2557 44.9384 41.2244 44.9698C41.1931 45.0011 41.1507 45.0187 41.1065 45.0187ZM30.6592 44.6845H40.9397V33.6537H30.6592V44.6845Z" fill="#D1D3D4"/>
<path d="M43.5934 36.266C43.5376 36.3602 43.4733 36.449 43.4012 36.5313L36.5427 43.3946C36.5081 43.4494 36.4601 43.4945 36.4034 43.5258C36.3467 43.557 36.283 43.5734 36.2183 43.5734C36.1536 43.5734 36.0899 43.557 36.0332 43.5258C35.9765 43.4945 35.9285 43.4494 35.8939 43.3946L32.0369 39.398C31.9847 39.3638 31.9422 39.3166 31.9135 39.2611C31.8848 39.2056 31.8708 39.1436 31.873 39.0812C31.8752 39.0187 31.8934 38.9579 31.926 38.9045C31.9585 38.8512 32.0042 38.8071 32.0586 38.7767L33.0265 37.9047C33.0602 37.8588 33.1041 37.8216 33.1548 37.7959C33.2055 37.7703 33.2615 37.7569 33.3183 37.7569C33.3751 37.7569 33.4311 37.7703 33.4818 37.7959C33.5325 37.8216 33.5764 37.8588 33.6101 37.9047C34.3665 38.6822 35.1266 39.4585 35.8902 40.2336C35.9254 40.2884 35.9736 40.3334 36.0306 40.3646C36.0876 40.3958 36.1515 40.4121 36.2165 40.4121C36.2814 40.4121 36.3453 40.3958 36.4023 40.3646C36.4593 40.3334 36.5076 40.2884 36.5427 40.2336L41.8751 34.9399C41.9103 34.8874 41.9577 34.8444 42.0134 34.8147C42.069 34.785 42.1311 34.7694 42.1941 34.7694C42.2572 34.7694 42.3192 34.785 42.3749 34.8147C42.4305 34.8444 42.478 34.8874 42.5131 34.9399C42.814 35.2414 43.1149 35.543 43.4121 35.8518C43.4789 35.9327 43.5407 36.0176 43.597 36.1062L43.5934 36.266Z" fill="#68E1FD"/>
<path d="M62.6028 37.5522H47.3597C47.3192 37.5463 47.2823 37.5259 47.2555 37.4949C47.2288 37.4639 47.2141 37.4243 47.2141 37.3833C47.2141 37.3423 47.2288 37.3027 47.2555 37.2717C47.2823 37.2407 47.3192 37.2203 47.3597 37.2143H62.6028C62.6433 37.2203 62.6802 37.2407 62.707 37.2717C62.7337 37.3027 62.7484 37.3423 62.7484 37.3833C62.7484 37.4243 62.7337 37.4639 62.707 37.4949C62.6802 37.5259 62.6433 37.5463 62.6028 37.5522Z" fill="#D1D3D4"/>
<path d="M58.55 41.1238H47.3596C47.3154 41.1238 47.273 41.1062 47.2417 41.0749C47.2104 41.0435 47.1929 41.001 47.1929 40.9567C47.1929 40.9123 47.2104 40.8698 47.2417 40.8385C47.273 40.8071 47.3154 40.7895 47.3596 40.7895H58.55C58.5942 40.7895 58.6366 40.8071 58.6679 40.8385C58.6992 40.8698 58.7167 40.9123 58.7167 40.9567C58.7167 41.001 58.6992 41.0435 58.6679 41.0749C58.6366 41.1062 58.5942 41.1238 58.55 41.1238Z" fill="#D1D3D4"/>
<path d="M41.1064 60.4786H30.4924C30.4482 60.4786 30.4058 60.461 30.3745 60.4296C30.3433 60.3983 30.3257 60.3558 30.3257 60.3114V48.95C30.3257 48.9057 30.3433 48.8632 30.3745 48.8318C30.4058 48.8005 30.4482 48.7829 30.4924 48.7829H41.1064C41.1504 48.7838 41.1922 48.8017 41.2233 48.8328C41.2544 48.864 41.2723 48.906 41.2732 48.95V60.3187C41.2705 60.3615 41.2518 60.4016 41.2209 60.4312C41.19 60.4609 41.1492 60.4777 41.1064 60.4786ZM30.6592 60.1443H40.9397V49.1099H30.6592V60.1443Z" fill="#D1D3D4"/>
<path d="M43.5934 51.7222C43.5376 51.8164 43.4733 51.9052 43.4012 51.9875L36.5427 58.8508C36.3071 59.087 36.1259 59.0906 35.8939 58.8508C34.6058 57.521 33.3201 56.1888 32.0369 54.8542C31.9847 54.82 31.9422 54.7728 31.9135 54.7173C31.8848 54.6618 31.8708 54.5998 31.873 54.5374C31.8752 54.4749 31.8934 54.4141 31.926 54.3607C31.9585 54.3074 32.0042 54.2633 32.0586 54.2329L33.0265 53.3609C33.0602 53.3151 33.1041 53.2778 33.1548 53.2521C33.2055 53.2265 33.2615 53.2131 33.3183 53.2131C33.3751 53.2131 33.4311 53.2265 33.4818 53.2521C33.5325 53.2778 33.5764 53.3151 33.6101 53.3609L35.8902 55.6935C35.9254 55.7482 35.9736 55.7933 36.0306 55.8244C36.0876 55.8556 36.1515 55.872 36.2165 55.872C36.2814 55.872 36.3453 55.8556 36.4023 55.8244C36.4593 55.7933 36.5076 55.7482 36.5427 55.6935L41.8751 50.4033C41.9103 50.3509 41.9577 50.3079 42.0134 50.2782C42.069 50.2485 42.1311 50.2329 42.1941 50.2329C42.2572 50.2329 42.3192 50.2485 42.3749 50.2782C42.4305 50.3079 42.478 50.3509 42.5131 50.4033C42.814 50.7085 43.1149 51.0101 43.4121 51.3153C43.4789 51.3962 43.5407 51.4811 43.597 51.5696L43.5934 51.7222Z" fill="#68E1FD"/>
<path d="M62.6027 53.0084H47.3596C47.3157 53.0075 47.2738 52.9896 47.2427 52.9585C47.2117 52.9273 47.1938 52.8853 47.1929 52.8413C47.1929 52.797 47.2104 52.7545 47.2417 52.7231C47.273 52.6918 47.3154 52.6742 47.3596 52.6742H62.6027C62.647 52.6742 62.6894 52.6918 62.7207 52.7231C62.7519 52.7545 62.7695 52.797 62.7695 52.8413C62.7686 52.8853 62.7507 52.9273 62.7196 52.9585C62.6886 52.9896 62.6467 53.0075 62.6027 53.0084Z" fill="#D1D3D4"/>
<path d="M58.55 56.58H47.3596C47.3154 56.58 47.273 56.5624 47.2417 56.5311C47.2104 56.4997 47.1929 56.4572 47.1929 56.4129C47.1938 56.3688 47.2117 56.3269 47.2427 56.2957C47.2738 56.2646 47.3157 56.2467 47.3596 56.2457H58.55C58.5939 56.2467 58.6358 56.2646 58.6669 56.2957C58.698 56.3269 58.7158 56.3688 58.7167 56.4129C58.7167 56.4572 58.6992 56.4997 58.6679 56.5311C58.6366 56.5624 58.5942 56.58 58.55 56.58Z" fill="#D1D3D4"/>
<path d="M14.1582 46.73C16.8298 43.8234 20.0126 41.3999 23.3403 39.2672C24.1632 38.7367 25.0513 38.2062 26.0301 38.1772C27.0088 38.1481 28.0746 38.8457 28.1036 39.8267C28.1253 40.597 27.5453 41.2364 27.0161 41.7814L19.9002 48.95C20.7615 50.5857 21.1248 52.4389 20.945 54.2796C20.7652 56.1204 20.0503 57.8678 18.8888 59.305" fill="white"/>
<path d="M18.8889 59.4867C18.8466 59.4879 18.8054 59.4737 18.7729 59.4467C18.7363 59.4151 18.7136 59.3704 18.7096 59.3222C18.7055 59.274 18.7204 59.2261 18.7511 59.1887C19.8843 57.777 20.5815 56.0643 20.7573 54.261C20.9331 52.4577 20.5798 50.6421 19.7407 49.0372C19.7225 49.0027 19.7158 48.9632 19.7216 48.9246C19.7275 48.886 19.7456 48.8503 19.7734 48.8228L26.8747 41.6724C27.4149 41.1274 27.9441 40.5388 27.9224 39.8558C27.897 38.9656 26.9001 38.3625 26.0337 38.4024C25.1674 38.4424 24.2829 38.9111 23.4382 39.4561C19.5704 41.934 16.6631 44.2957 14.2924 46.8899C14.2597 46.9256 14.2142 46.9467 14.1659 46.9488C14.1176 46.9508 14.0705 46.9336 14.035 46.9008C13.9994 46.868 13.9783 46.8225 13.9762 46.7741C13.9742 46.7257 13.9914 46.6785 14.0241 46.6428C16.4166 44.0268 19.3456 41.647 23.2425 39.1473C24.1342 38.5768 25.0187 38.0573 26.0265 38.0573C27.0342 38.0573 28.2522 38.7839 28.2849 39.8739C28.3102 40.7023 27.7302 41.36 27.1321 41.9595L20.125 48.9718C20.9805 50.6287 21.3335 52.5004 21.1402 54.356C20.947 56.2116 20.216 57.9699 19.0375 59.414C19.0198 59.4366 18.9973 59.455 18.9715 59.4675C18.9458 59.4801 18.9175 59.4867 18.8889 59.4867Z" fill="#231F20"/>
<path d="M76.3597 68.2321L67.5836 74.5323L51.1769 54.2038C51.2022 53.1138 50.4519 48.3287 52.0722 49.1171C53.6926 49.9056 59.7355 56.8089 60.7324 57.0342C61.7292 57.2594 64.0384 56.1258 63.6904 53.8913C63.3424 51.6568 62.9219 47.8963 60.7396 47.7401C57.43 47.5039 54.3524 49.7057 53.0437 49.1934C51.7351 48.6811 50.6549 46.9408 52.79 45.6546C55.2332 44.2012 60.4931 43.2566 64.709 43.7144C68.9249 44.1722 72.1221 52.6742 72.4194 58.9017C73.5286 62.862 75.671 66.4699 76.3597 68.2321Z" fill="white"/>
<path d="M67.5835 74.714C67.5562 74.7141 67.5293 74.708 67.5048 74.696C67.4802 74.684 67.4588 74.6665 67.4421 74.6449L51.039 54.3201C51.0105 54.2867 50.995 54.2441 50.9955 54.2002C50.9955 53.9822 50.9737 53.6007 50.9411 53.161C50.7997 51.199 50.7272 49.4042 51.3942 48.9464C51.5078 48.8771 51.6383 48.8404 51.7712 48.8404C51.9042 48.8404 52.0346 48.8771 52.1482 48.9464C53.011 49.3569 54.9902 51.3553 56.9079 53.2882C58.5174 54.9123 60.3407 56.7508 60.7721 56.8525C61.2035 56.9542 62.1097 56.7072 62.755 56.104C63.0549 55.8345 63.2817 55.4932 63.4142 55.1119C63.5467 54.7307 63.5806 54.322 63.5126 53.924L63.4437 53.4808C63.1175 51.3262 62.6245 48.0671 60.7286 47.929C58.956 47.8019 57.2232 48.3977 55.8349 48.8773C54.606 49.2988 53.6381 49.6331 52.9784 49.3824C52.5732 49.2411 52.2133 48.9931 51.9365 48.6646C51.6597 48.336 51.4762 47.9389 51.4051 47.5148C51.358 46.988 51.5429 46.2105 52.6956 45.5165C55.2331 43.9869 60.6344 43.1076 64.727 43.5509C69.1676 44.0377 72.2996 52.805 72.6005 58.8908C73.3581 61.5867 74.6051 64.1446 75.5186 66.0121C75.9427 66.8769 76.3089 67.6253 76.5264 68.1921C76.5404 68.2292 76.542 68.2698 76.5309 68.3079C76.5198 68.3459 76.4965 68.3793 76.4647 68.4029L67.6886 74.7067C67.6551 74.7195 67.6185 74.722 67.5835 74.714ZM51.3616 54.142L67.6125 74.2852L76.1349 68.1667C75.9174 67.6362 75.5766 66.9423 75.1887 66.1502C74.268 64.2645 73.0137 61.6812 72.2416 58.9489C72.2399 58.9357 72.2399 58.9222 72.2416 58.909C71.9625 53.0956 68.8849 44.3502 64.6944 43.8924C60.6634 43.4528 55.3672 44.3102 52.8877 45.8035C52.1011 46.2795 51.7169 46.8499 51.7712 47.4603C51.8347 47.8173 51.9926 48.1506 52.2286 48.4255C52.4645 48.7003 52.7698 48.9066 53.1125 49.0227C53.6454 49.2225 54.606 48.8955 55.7189 48.5104C57.1435 48.0235 58.9089 47.4204 60.7576 47.5439C62.9326 47.7038 63.4619 51.1336 63.8062 53.4045L63.8751 53.8477C63.9528 54.3063 63.9138 54.7772 63.7618 55.2167C63.6097 55.6562 63.3494 56.0501 63.0051 56.362C62.3381 56.9869 61.3449 57.3466 60.696 57.1977C60.1849 57.0814 58.8255 55.7443 56.6541 53.5389C54.8416 51.7222 52.8007 49.6512 51.9996 49.2661C51.7459 49.1462 51.6371 49.2225 51.6009 49.2479C51.0499 49.6113 51.2166 51.9075 51.3072 53.132C51.3326 53.5607 51.358 53.9059 51.3616 54.142Z" fill="#231F20"/>
<path d="M45.7067 50.4106L46.0801 53.379L42.9517 52.7941L41.2842 52.4816L42.8212 51.7622L45.7067 50.4106Z" fill="white"/>
<path d="M46.08 53.5607H46.0473L41.2515 52.6633C41.2137 52.6564 41.1792 52.6375 41.153 52.6093C41.1269 52.5812 41.1105 52.5453 41.1065 52.507C41.1012 52.4688 41.1082 52.4299 41.1264 52.3959C41.1447 52.362 41.1732 52.3347 41.208 52.3181L45.6268 50.2507C45.6526 50.2374 45.6812 50.2304 45.7102 50.2304C45.7392 50.2304 45.7678 50.2374 45.7936 50.2507C45.8183 50.2651 45.8394 50.2851 45.8551 50.3091C45.8708 50.333 45.8808 50.3603 45.8842 50.3888L46.2467 53.3572C46.2487 53.3826 46.2455 53.4082 46.2374 53.4323C46.2292 53.4565 46.2163 53.4787 46.1994 53.4977C46.1825 53.5167 46.1619 53.5321 46.1388 53.5429C46.1158 53.5537 46.0909 53.5598 46.0655 53.5607H46.08ZM41.875 52.4053L45.8625 53.1538L45.5507 50.6795L41.875 52.4053Z" fill="#231F20"/>
<path d="M69.0625 50.4578L46.0763 53.3645C45.8357 52.9108 45.6739 52.4193 45.5979 51.9112C45.5456 51.4014 45.5811 50.8865 45.703 50.3888L68.6855 47.4821L69.0625 50.4578Z" fill="#68E1FD"/>
<path d="M46.08 53.5607C46.0483 53.5605 46.0173 53.552 45.99 53.5361C45.9626 53.5202 45.9399 53.4973 45.9241 53.4699C45.6701 52.9981 45.5008 52.4853 45.4238 51.9548C45.368 51.4234 45.4035 50.8863 45.529 50.367C45.5376 50.3317 45.5568 50.2999 45.5841 50.2758C45.6113 50.2518 45.6452 50.2367 45.6812 50.2326L68.6673 47.3077C68.7151 47.3035 68.7627 47.3177 68.8004 47.3474C68.8382 47.3771 68.8632 47.4201 68.8703 47.4676L69.2328 50.436C69.2368 50.4597 69.2356 50.484 69.2293 50.5072C69.2231 50.5304 69.2119 50.552 69.1966 50.5705C69.1821 50.5889 69.164 50.6042 69.1434 50.6154C69.1229 50.6266 69.1003 50.6336 69.077 50.6359L46.0945 53.5607H46.08ZM45.8552 50.5777C45.7609 51.0156 45.7364 51.4656 45.7827 51.9112C45.8478 52.354 45.9836 52.7834 46.1851 53.1828L68.8631 50.298L68.5332 47.6929L45.8552 50.5777Z" fill="#231F20"/>
<path d="M72.7433 49.9931L69.068 50.4604L68.6925 47.4939L72.3678 47.0266C72.5853 46.999 72.8048 47.059 72.9781 47.1936C73.1514 47.3282 73.2642 47.5262 73.2918 47.7442L73.4592 49.067C73.4868 49.285 73.4269 49.505 73.2926 49.6787C73.1584 49.8523 72.9608 49.9654 72.7433 49.9931Z" fill="white"/>
<path d="M69.0626 50.6395C69.0183 50.6391 68.9756 50.6227 68.9423 50.5933C68.9091 50.564 68.8874 50.5236 68.8813 50.4796L68.5188 47.5112C68.5158 47.4875 68.5174 47.4634 68.5236 47.4404C68.5298 47.4173 68.5405 47.3957 68.5551 47.3768C68.5851 47.3397 68.6277 47.3151 68.6747 47.3077L72.3505 46.8427C72.6157 46.8097 72.8831 46.8833 73.0944 47.0474C73.3056 47.2115 73.4435 47.4527 73.4778 47.7183L73.6446 49.0408C73.6775 49.3067 73.604 49.5747 73.4403 49.7864C73.2766 49.9982 73.036 50.1364 72.771 50.1708L69.0952 50.6359L69.0626 50.6395ZM68.8886 47.6456L69.2185 50.2544L72.7166 49.8111C72.8861 49.7876 73.0397 49.6982 73.1441 49.5623C73.2485 49.4264 73.2955 49.2547 73.2748 49.0844L73.1081 47.7619C73.0974 47.6774 73.0701 47.5958 73.0278 47.5218C72.9855 47.4479 72.929 47.3831 72.8617 47.3311C72.7943 47.2791 72.7173 47.2409 72.6352 47.2188C72.5531 47.1968 72.4674 47.1912 72.3831 47.2024L68.8886 47.6456Z" fill="#231F20"/>
<path d="M69.8971 47.3358L69.4763 47.3893L69.8518 50.3557L70.2725 50.3022L69.8971 47.3358Z" fill="#231F20"/>
<path d="M70.7328 47.231L70.312 47.2845L70.6875 50.251L71.1082 50.1975L70.7328 47.231Z" fill="#231F20"/>
<path d="M42.8212 51.7622L42.9517 52.7941L41.2842 52.4816L42.8212 51.7622Z" fill="#68E1FD"/>
<path d="M42.9626 52.9757H42.9263L41.2624 52.6633C41.2247 52.6564 41.1901 52.6375 41.164 52.6093C41.1379 52.5812 41.1215 52.5453 41.1174 52.507C41.1122 52.4688 41.1191 52.4299 41.1374 52.3959C41.1556 52.362 41.1842 52.3347 41.2189 52.3181L42.7523 51.5914C42.7781 51.5781 42.8067 51.5711 42.8357 51.5711C42.8647 51.5711 42.8933 51.5781 42.9191 51.5914C42.9438 51.6059 42.9649 51.6258 42.9806 51.6498C42.9963 51.6737 43.0063 51.701 43.0097 51.7295L43.1402 52.7577C43.1438 52.7833 43.1419 52.8094 43.1347 52.8342C43.1274 52.859 43.115 52.882 43.0982 52.9016C43.0814 52.9212 43.0606 52.937 43.0372 52.9479C43.0138 52.9588 42.9884 52.9646 42.9626 52.9648V52.9757ZM41.8751 52.4053L42.7414 52.5688L42.6762 52.0311L41.8751 52.4053Z" fill="#231F20"/>
<path d="M52.0032 55.2284C52.0032 55.2284 49.734 52.4053 49.0706 51.3625C47.9831 49.6621 50.6547 48.1579 51.6081 48.8701C52.2932 49.3751 55.824 52.5034 56.5345 53.1756" fill="white"/>
<path d="M52.0033 55.4101C51.9761 55.4102 51.9491 55.4041 51.9246 55.3921C51.9001 55.3801 51.8787 55.3627 51.862 55.341C51.7713 55.2284 49.5818 52.4998 48.9185 51.457C48.6908 51.1086 48.6017 50.6873 48.6688 50.2763C48.7359 49.8653 48.9543 49.4945 49.281 49.237C49.9516 48.6085 51.0935 48.2524 51.746 48.7247C52.3985 49.1971 55.9691 52.3581 56.6868 53.0448C56.7042 53.0612 56.7182 53.081 56.7279 53.1028C56.7377 53.1247 56.7431 53.1483 56.7438 53.1723C56.7444 53.1962 56.7404 53.2201 56.7319 53.2424C56.7233 53.2648 56.7105 53.2853 56.6941 53.3027C56.6777 53.3202 56.658 53.3342 56.6361 53.3439C56.6143 53.3537 56.5908 53.3591 56.5669 53.3598C56.543 53.3605 56.5192 53.3564 56.4969 53.3479C56.4745 53.3393 56.4541 53.3265 56.4367 53.31C55.7117 52.6269 52.2027 49.5132 51.5285 49.019C51.0935 48.6993 50.1401 48.9282 49.5275 49.5023C49.2702 49.708 49.0982 50.002 49.0446 50.3275C48.9911 50.653 49.0598 50.9868 49.2375 51.2644C49.89 52.289 52.1375 55.0867 52.1592 55.1158C52.1745 55.134 52.1861 55.1551 52.1931 55.1779C52.2002 55.2006 52.2026 55.2246 52.2002 55.2483C52.1978 55.272 52.1908 55.295 52.1794 55.316C52.1679 55.3369 52.1525 55.3553 52.1338 55.3701C52.1159 55.3852 52.0951 55.3966 52.0727 55.4034C52.0502 55.4103 52.0267 55.4126 52.0033 55.4101Z" fill="#231F20"/>
<path d="M74.7611 61.3869L62.3455 70.8299L68.1201 86.2861L90.2435 85.1998L74.7611 61.3869Z" fill="#231F20"/>
<path d="M68.1199 86.4678C68.0831 86.4681 68.0471 86.4571 68.0167 86.4363C67.9862 86.4155 67.9628 86.386 67.9496 86.3515L62.1749 70.8953C62.1608 70.8592 62.1587 70.8194 62.1692 70.782C62.1797 70.7446 62.2021 70.7117 62.2329 70.6882L74.6486 61.2416C74.6684 61.2262 74.6913 61.2154 74.7157 61.2097C74.7401 61.2041 74.7654 61.2038 74.7899 61.2089C74.8143 61.2131 74.8376 61.2224 74.8582 61.2362C74.8788 61.2499 74.8963 61.2679 74.9096 61.2888L90.3883 85.1017C90.4067 85.1281 90.4175 85.1589 90.4198 85.191C90.422 85.2231 90.4155 85.2552 90.401 85.2839C90.3865 85.3126 90.3646 85.3368 90.3374 85.354C90.3103 85.3712 90.279 85.3806 90.2469 85.3814L68.1344 86.4714L68.1199 86.4678ZM62.5628 70.8953L68.2432 86.1008L89.9171 85.0363L74.7138 61.6667L62.5628 70.8953Z" fill="#231F20"/>
</svg>
