<svg width="248" height="237" viewBox="0 0 248 237" fill="none" xmlns="http://www.w3.org/2000/svg">
<path d="M56.8301 206.37C56.8301 206.37 60.6401 175.29 62.8301 168.5C65.0201 161.71 64.4001 96.66 64.4701 96C64.5401 95.34 29.2901 112.91 26.2101 118.14C23.1301 123.37 31.1501 157.48 28.9001 162.41C26.6501 167.34 19.3201 188.94 19.3201 188.94L56.8301 206.37Z" fill="white"/>
<path d="M56.83 206.87C56.7573 206.868 56.6859 206.851 56.62 206.82L19.1 189.39C18.9863 189.341 18.8952 189.251 18.8452 189.138C18.7951 189.025 18.7897 188.897 18.83 188.78C19.13 187.89 26.21 167.09 28.44 162.2C29.44 160.03 28.2 151.05 27 142.37C25.55 131.78 24 120.83 25.77 117.89C27.54 114.95 37.68 109.08 45.96 104.59C48.68 103.12 63.65 95.22 64.61 95.51C64.7205 95.5477 64.815 95.6214 64.8785 95.7194C64.942 95.8173 64.9707 95.9338 64.96 96.05C64.96 96.2 64.96 97.96 64.96 100.38C65.01 115.83 65.16 162.83 63.28 168.66C61.14 175.32 57.36 206.12 57.28 206.43C57.2595 206.549 57.1987 206.658 57.1077 206.738C57.0167 206.818 56.9011 206.865 56.78 206.87H56.83ZM19.93 188.67L56.42 205.67C57 200.97 60.32 174.67 62.34 168.4C63.55 164.64 64.1 141.77 63.97 100.4C63.97 98.4 63.97 97.28 63.97 96.67C59.33 98.51 29.38 113.74 26.64 118.41C25.09 121.05 26.64 132.31 28.01 142.24C29.33 151.87 30.47 160.24 29.36 162.63C27.31 167.08 21 185.62 19.93 188.67Z" fill="#231F20"/>
<path d="M56.2701 233.66L62.3001 193.46L21.2901 173.16L0.570068 231.63L56.2701 233.66Z" fill="#231F20"/>
<path d="M56.27 234.16L0.580015 232.16C0.501384 232.16 0.423989 232.14 0.354368 232.104C0.284748 232.067 0.224946 232.015 0.180014 231.95C0.136639 231.884 0.108703 231.81 0.0983107 231.732C0.0879181 231.654 0.0953421 231.575 0.120016 231.5L20.82 173C20.8461 172.935 20.8853 172.875 20.9351 172.825C20.985 172.775 21.0444 172.736 21.1099 172.71C21.1754 172.684 21.2455 172.671 21.316 172.673C21.3865 172.674 21.4559 172.691 21.52 172.72L62.52 193.02C62.6169 193.064 62.6966 193.139 62.7472 193.233C62.7977 193.327 62.8162 193.435 62.8 193.54L56.8 233.74C56.7782 233.863 56.7123 233.973 56.6146 234.05C56.517 234.128 56.3944 234.167 56.27 234.16ZM1.27001 231.16L55.84 233.16L61.75 193.76L21.58 173.86L1.27001 231.16Z" fill="#231F20"/>
<path d="M188.47 18.31H63.11C59.5753 18.31 56.71 21.1754 56.71 24.71V190.68C56.71 194.215 59.5753 197.08 63.11 197.08H188.47C192.005 197.08 194.87 194.215 194.87 190.68V24.71C194.87 21.1754 192.005 18.31 188.47 18.31Z" fill="white"/>
<path d="M188.47 197.59H63.1C61.2725 197.585 59.5216 196.856 58.2303 195.563C56.939 194.269 56.2126 192.517 56.21 190.69V24.69C56.2126 22.8625 56.939 21.1106 58.2303 19.8174C59.5216 18.5243 61.2725 17.7953 63.1 17.79H188.47C190.299 17.7926 192.053 18.5205 193.346 19.8139C194.639 21.1073 195.367 22.8608 195.37 24.69V190.69C195.367 192.519 194.639 194.273 193.346 195.566C192.053 196.86 190.299 197.587 188.47 197.59ZM63.1 18.81C61.5369 18.8127 60.0388 19.4354 58.9345 20.5416C57.8302 21.6478 57.21 23.147 57.21 24.71V190.71C57.21 192.273 57.8302 193.772 58.9345 194.878C60.0388 195.985 61.5369 196.607 63.1 196.61H188.47C190.034 196.607 191.533 195.985 192.639 194.879C193.745 193.773 194.367 192.274 194.37 190.71V24.71C194.367 23.146 193.745 21.6469 192.639 20.541C191.533 19.4351 190.034 18.8126 188.47 18.81H63.1Z" fill="#231F20"/>
<path d="M186.4 29.27H65.17V186.14H186.4V29.27Z" fill="white"/>
<path d="M186.4 186.64H65.17C65.0374 186.64 64.9103 186.587 64.8165 186.494C64.7227 186.4 64.67 186.273 64.67 186.14V29.27C64.67 29.1374 64.7227 29.0102 64.8165 28.9165C64.9103 28.8227 65.0374 28.77 65.17 28.77H186.4C186.533 28.77 186.66 28.8227 186.754 28.9165C186.847 29.0102 186.9 29.1374 186.9 29.27V186.14C186.9 186.273 186.847 186.4 186.754 186.494C186.66 186.587 186.533 186.64 186.4 186.64ZM65.67 185.64H185.9V29.77H65.67V185.64Z" fill="#231F20"/>
<path d="M157.47 12H140C139.359 8.69227 137.587 5.7107 134.988 3.56683C132.389 1.42296 129.124 0.25045 125.755 0.25045C122.386 0.25045 119.122 1.42296 116.522 3.56683C113.923 5.7107 112.151 8.69227 111.51 12H94.11C93.0005 12 91.9363 12.4401 91.1508 13.2237C90.3653 14.0073 89.9227 15.0705 89.92 16.18V30.75C89.9227 31.8595 90.3653 32.9227 91.1508 33.7063C91.9363 34.4899 93.0005 34.93 94.11 34.93H157.47C158.579 34.93 159.642 34.4896 160.426 33.7057C161.21 32.9218 161.65 31.8586 161.65 30.75V16.17C161.647 15.0631 161.206 14.0025 160.422 13.2208C159.639 12.439 158.577 12 157.47 12ZM125.79 13.9C125.054 13.902 124.334 13.6855 123.721 13.2779C123.108 12.8704 122.629 12.2901 122.346 11.6105C122.063 10.931 121.988 10.1827 122.13 9.46041C122.273 8.73815 122.626 8.07437 123.146 7.55312C123.666 7.03187 124.329 6.67658 125.051 6.53223C125.773 6.38788 126.521 6.46096 127.201 6.74222C127.882 7.02348 128.463 7.50028 128.872 8.11224C129.282 8.72421 129.5 9.44383 129.5 10.18C129.497 11.1641 129.106 12.1072 128.411 12.804C127.716 13.5008 126.774 13.8947 125.79 13.9Z" fill="#68E1FD"/>
<path d="M111.88 79.46H82.6C82.478 79.46 82.361 79.4115 82.2747 79.3253C82.1885 79.239 82.14 79.122 82.14 79V47.71C82.14 47.588 82.1885 47.471 82.2747 47.3847C82.361 47.2985 82.478 47.25 82.6 47.25H111.88C112.001 47.2526 112.117 47.3018 112.202 47.3876C112.288 47.4733 112.337 47.5888 112.34 47.71V79C112.337 79.1212 112.288 79.2367 112.202 79.3224C112.117 79.4082 112.001 79.4574 111.88 79.46ZM83.06 78.53H111.42V48.17H83.06V78.53Z" fill="#D1D3D4"/>
<path d="M118.74 55.36C118.586 55.6192 118.409 55.8636 118.21 56.09L99.29 75C99.1944 75.1508 99.0622 75.2749 98.9057 75.3609C98.7492 75.4469 98.5736 75.4921 98.395 75.4921C98.2165 75.4921 98.0408 75.4469 97.8844 75.3609C97.7279 75.2749 97.5957 75.1508 97.5 75L86.86 64C86.7161 63.9058 86.5988 63.7761 86.5197 63.6234C86.4405 63.4706 86.4021 63.3 86.4081 63.1281C86.4141 62.9562 86.4644 62.7887 86.5541 62.6419C86.6438 62.4951 86.7698 62.3739 86.92 62.29L89.59 59.89C89.683 59.7639 89.8043 59.6614 89.9441 59.5907C90.0839 59.5201 90.2384 59.4833 90.395 59.4833C90.5517 59.4833 90.7062 59.5201 90.846 59.5907C90.9858 59.6614 91.1071 59.7639 91.2 59.89C93.2867 62.03 95.3834 64.1667 97.49 66.3C97.5869 66.4507 97.7201 66.5746 97.8774 66.6605C98.0346 66.7463 98.2109 66.7913 98.39 66.7913C98.5692 66.7913 98.7455 66.7463 98.9027 66.6605C99.06 66.5746 99.1931 66.4507 99.29 66.3L114 51.71C114.097 51.5656 114.228 51.4473 114.381 51.3655C114.535 51.2837 114.706 51.2409 114.88 51.2409C115.054 51.2409 115.225 51.2837 115.379 51.3655C115.532 51.4473 115.663 51.5656 115.76 51.71C116.59 52.55 117.42 53.38 118.24 54.22C118.424 54.4426 118.595 54.6764 118.75 54.92L118.74 55.36Z" fill="#68E1FD"/>
<path d="M171.18 58.9H129.13C129.018 58.8836 128.916 58.8276 128.843 58.7422C128.769 58.6568 128.728 58.5478 128.728 58.435C128.728 58.3222 128.769 58.2132 128.843 58.1278C128.916 58.0424 129.018 57.9864 129.13 57.97H171.18C171.292 57.9864 171.394 58.0424 171.467 58.1278C171.541 58.2132 171.582 58.3222 171.582 58.435C171.582 58.5478 171.541 58.6568 171.467 58.7422C171.394 58.8276 171.292 58.8836 171.18 58.9Z" fill="#D1D3D4"/>
<path d="M160 68.73H129.13C129.008 68.73 128.891 68.6815 128.805 68.5953C128.719 68.509 128.67 68.392 128.67 68.27C128.67 68.148 128.719 68.031 128.805 67.9447C128.891 67.8585 129.008 67.81 129.13 67.81H160C160.122 67.81 160.239 67.8585 160.325 67.9447C160.412 68.031 160.46 68.148 160.46 68.27C160.46 68.392 160.412 68.509 160.325 68.5953C160.239 68.6815 160.122 68.73 160 68.73Z" fill="#D1D3D4"/>
<path d="M111.88 122.18H82.6C82.5392 122.181 82.4788 122.17 82.4224 122.148C82.3659 122.125 82.3147 122.091 82.2717 122.048C82.2287 122.005 82.1949 121.954 82.1722 121.898C82.1496 121.841 82.1386 121.781 82.14 121.72V90.44C82.14 90.318 82.1885 90.201 82.2747 90.1147C82.361 90.0285 82.478 89.98 82.6 89.98H111.88C112.001 89.9826 112.117 90.0318 112.202 90.1176C112.288 90.2033 112.337 90.3188 112.34 90.44V121.72C112.34 121.842 112.292 121.959 112.205 122.045C112.119 122.132 112.002 122.18 111.88 122.18ZM83.06 121.26H111.42V90.9H83.06V121.26Z" fill="#D1D3D4"/>
<path d="M118.74 98.09C118.586 98.3492 118.409 98.5936 118.21 98.82L99.29 117.71C99.1944 117.861 99.0622 117.985 98.9057 118.071C98.7492 118.157 98.5736 118.202 98.395 118.202C98.2165 118.202 98.0408 118.157 97.8844 118.071C97.7279 117.985 97.5957 117.861 97.5 117.71L86.86 106.71C86.7161 106.616 86.5988 106.486 86.5197 106.333C86.4405 106.181 86.4021 106.01 86.4081 105.838C86.4141 105.666 86.4644 105.499 86.5541 105.352C86.6438 105.205 86.7698 105.084 86.92 105L89.59 102.6C89.683 102.474 89.8043 102.371 89.9441 102.301C90.0839 102.23 90.2384 102.193 90.395 102.193C90.5517 102.193 90.7062 102.23 90.846 102.301C90.9858 102.371 91.1071 102.474 91.2 102.6C93.2867 104.74 95.3834 106.877 97.49 109.01C97.5869 109.161 97.7201 109.285 97.8774 109.37C98.0346 109.456 98.2109 109.501 98.39 109.501C98.5692 109.501 98.7455 109.456 98.9027 109.37C99.06 109.285 99.1931 109.161 99.29 109.01L114 94.44C114.097 94.2956 114.228 94.1773 114.381 94.0955C114.535 94.0137 114.706 93.9709 114.88 93.9709C115.054 93.9709 115.225 94.0137 115.379 94.0955C115.532 94.1773 115.663 94.2956 115.76 94.44C116.59 95.27 117.42 96.1 118.24 96.95C118.424 97.1726 118.595 97.4064 118.75 97.65L118.74 98.09Z" fill="#68E1FD"/>
<path d="M171.18 101.63H129.13C129.018 101.614 128.916 101.558 128.843 101.472C128.769 101.387 128.728 101.278 128.728 101.165C128.728 101.052 128.769 100.943 128.843 100.858C128.916 100.772 129.018 100.716 129.13 100.7H171.18C171.292 100.716 171.394 100.772 171.467 100.858C171.541 100.943 171.582 101.052 171.582 101.165C171.582 101.278 171.541 101.387 171.467 101.472C171.394 101.558 171.292 101.614 171.18 101.63Z" fill="#D1D3D4"/>
<path d="M160 111.46H129.13C129.008 111.46 128.891 111.412 128.805 111.325C128.719 111.239 128.67 111.122 128.67 111C128.67 110.878 128.719 110.761 128.805 110.675C128.891 110.588 129.008 110.54 129.13 110.54H160C160.122 110.54 160.239 110.588 160.325 110.675C160.412 110.761 160.46 110.878 160.46 111C160.46 111.122 160.412 111.239 160.325 111.325C160.239 111.412 160.122 111.46 160 111.46Z" fill="#D1D3D4"/>
<path d="M111.88 164.73H82.6C82.478 164.73 82.361 164.682 82.2747 164.595C82.1885 164.509 82.14 164.392 82.14 164.27V133C82.14 132.878 82.1885 132.761 82.2747 132.675C82.361 132.588 82.478 132.54 82.6 132.54H111.88C112.001 132.543 112.117 132.592 112.202 132.678C112.288 132.763 112.337 132.879 112.34 133V164.29C112.333 164.408 112.281 164.518 112.196 164.6C112.111 164.681 111.998 164.728 111.88 164.73ZM83.06 163.81H111.42V133.44H83.06V163.81Z" fill="#D1D3D4"/>
<path d="M118.74 140.63C118.586 140.889 118.409 141.134 118.21 141.36L99.29 160.25C98.64 160.9 98.14 160.91 97.5 160.25C93.9467 156.59 90.4 152.923 86.86 149.25C86.7161 149.156 86.5988 149.026 86.5197 148.873C86.4405 148.721 86.4021 148.55 86.4081 148.378C86.4141 148.206 86.4644 148.039 86.5541 147.892C86.6438 147.745 86.7698 147.624 86.92 147.54L89.59 145.14C89.683 145.014 89.8043 144.911 89.9441 144.841C90.0839 144.77 90.2384 144.733 90.395 144.733C90.5517 144.733 90.7062 144.77 90.846 144.841C90.9858 144.911 91.1071 145.014 91.2 145.14L97.49 151.56C97.5869 151.711 97.7201 151.835 97.8774 151.92C98.0346 152.006 98.2109 152.051 98.39 152.051C98.5692 152.051 98.7455 152.006 98.9027 151.92C99.06 151.835 99.1931 151.711 99.29 151.56L114 137C114.097 136.856 114.228 136.737 114.381 136.656C114.535 136.574 114.706 136.531 114.88 136.531C115.054 136.531 115.225 136.574 115.379 136.656C115.532 136.737 115.663 136.856 115.76 137C116.59 137.84 117.42 138.67 118.24 139.51C118.424 139.733 118.595 139.966 118.75 140.21L118.74 140.63Z" fill="#68E1FD"/>
<path d="M171.18 144.17H129.13C129.009 144.167 128.893 144.118 128.808 144.032C128.722 143.947 128.673 143.831 128.67 143.71C128.67 143.588 128.719 143.471 128.805 143.385C128.891 143.298 129.008 143.25 129.13 143.25H171.18C171.302 143.25 171.419 143.298 171.505 143.385C171.592 143.471 171.64 143.588 171.64 143.71C171.637 143.831 171.588 143.947 171.502 144.032C171.417 144.118 171.301 144.167 171.18 144.17Z" fill="#D1D3D4"/>
<path d="M160 154H129.13C129.008 154 128.891 153.952 128.805 153.865C128.719 153.779 128.67 153.662 128.67 153.54C128.673 153.419 128.722 153.303 128.808 153.218C128.893 153.132 129.009 153.083 129.13 153.08H160C160.121 153.083 160.237 153.132 160.322 153.218C160.408 153.303 160.458 153.419 160.46 153.54C160.46 153.662 160.412 153.779 160.325 153.865C160.239 153.952 160.122 154 160 154Z" fill="#D1D3D4"/>
<path d="M37.54 126.89C44.91 118.89 53.69 112.22 62.87 106.35C65.14 104.89 67.59 103.43 70.29 103.35C72.99 103.27 75.93 105.19 76.01 107.89C76.07 110.01 74.47 111.77 73.01 113.27L53.38 133C55.7561 137.502 56.7582 142.602 56.2623 147.669C55.7663 152.735 53.794 157.544 50.59 161.5" fill="white"/>
<path d="M50.59 162C50.4735 162.003 50.3597 161.964 50.27 161.89C50.1693 161.803 50.1066 161.68 50.0954 161.547C50.0842 161.415 50.1253 161.283 50.21 161.18C53.3359 157.294 55.2594 152.581 55.7444 147.617C56.2293 142.654 55.2547 137.657 52.94 133.24C52.8895 133.145 52.8711 133.036 52.8873 132.93C52.9035 132.824 52.9535 132.726 53.03 132.65L72.62 112.97C74.11 111.47 75.57 109.85 75.51 107.97C75.44 105.52 72.69 103.86 70.3 103.97C67.91 104.08 65.47 105.37 63.14 106.87C52.47 113.69 44.45 120.19 37.91 127.33C37.8198 127.428 37.6943 127.486 37.5612 127.492C37.428 127.498 37.2981 127.45 37.2 127.36C37.1018 127.27 37.0436 127.144 37.0379 127.011C37.0323 126.878 37.0798 126.748 37.17 126.65C43.77 119.45 51.85 112.9 62.6 106.02C65.06 104.45 67.5 103.02 70.28 103.02C73.06 103.02 76.42 105.02 76.51 108.02C76.58 110.3 74.98 112.11 73.33 113.76L54 133.06C56.3601 137.62 57.3337 142.772 56.8006 147.879C56.2675 152.986 54.2511 157.825 51 161.8C50.9513 161.862 50.8891 161.913 50.8181 161.947C50.747 161.982 50.669 162 50.59 162Z" fill="#231F20"/>
<path d="M209.13 186.07L184.92 203.41L139.66 147.46C139.73 144.46 137.66 131.29 142.13 133.46C146.6 135.63 163.27 154.63 166.02 155.25C168.77 155.87 175.14 152.75 174.18 146.6C173.22 140.45 172.06 130.1 166.04 129.67C156.91 129.02 148.42 135.08 144.81 133.67C141.2 132.26 138.22 127.47 144.11 123.93C150.85 119.93 165.36 117.33 176.99 118.59C188.62 119.85 197.44 143.25 198.26 160.39C201.32 171.29 207.23 181.22 209.13 186.07Z" fill="white"/>
<path d="M184.92 203.91C184.845 203.91 184.77 203.893 184.703 203.861C184.635 203.828 184.576 203.779 184.53 203.72L139.28 147.78C139.201 147.688 139.159 147.571 139.16 147.45C139.16 146.85 139.1 145.8 139.01 144.59C138.62 139.19 138.42 134.25 140.26 132.99C140.573 132.799 140.933 132.698 141.3 132.698C141.667 132.698 142.027 132.799 142.34 132.99C144.72 134.12 150.18 139.62 155.47 144.94C159.91 149.41 164.94 154.47 166.13 154.75C167.32 155.03 169.82 154.35 171.6 152.69C172.427 151.948 173.053 151.009 173.418 149.959C173.784 148.91 173.877 147.785 173.69 146.69L173.5 145.47C172.6 139.54 171.24 130.57 166.01 130.19C161.12 129.84 156.34 131.48 152.51 132.8C149.12 133.96 146.45 134.88 144.63 134.19C143.512 133.801 142.519 133.119 141.756 132.214C140.992 131.31 140.486 130.217 140.29 129.05C140.16 127.6 140.67 125.46 143.85 123.55C150.85 119.34 165.75 116.92 177.04 118.14C189.29 119.48 197.93 143.61 198.76 160.36C200.85 167.78 204.29 174.82 206.81 179.96C207.98 182.34 208.99 184.4 209.59 185.96C209.629 186.062 209.633 186.174 209.603 186.279C209.572 186.383 209.508 186.475 209.42 186.54L185.21 203.89C185.117 203.925 185.016 203.932 184.92 203.91ZM140.17 147.29L185 202.73L208.51 185.89C207.91 184.43 206.97 182.52 205.9 180.34C203.36 175.15 199.9 168.04 197.77 160.52C197.765 160.483 197.765 160.447 197.77 160.41C197 144.41 188.51 120.34 176.95 119.08C165.83 117.87 151.22 120.23 144.38 124.34C142.21 125.65 141.15 127.22 141.3 128.9C141.475 129.882 141.911 130.8 142.562 131.556C143.212 132.313 144.055 132.88 145 133.2C146.47 133.75 149.12 132.85 152.19 131.79C156.12 130.45 160.99 128.79 166.09 129.13C172.09 129.57 173.55 139.01 174.5 145.26L174.69 146.48C174.904 147.742 174.797 149.038 174.377 150.248C173.958 151.457 173.24 152.542 172.29 153.4C170.45 155.12 167.71 156.11 165.92 155.7C164.51 155.38 160.76 151.7 154.77 145.63C149.77 140.63 144.14 134.93 141.93 133.87C141.23 133.54 140.93 133.75 140.83 133.82C139.31 134.82 139.77 141.14 140.02 144.51C140.09 145.69 140.16 146.64 140.17 147.29Z" fill="#231F20"/>
<path d="M124.57 137.02L125.6 145.19L116.97 143.58L112.37 142.72L116.61 140.74L124.57 137.02Z" fill="white"/>
<path d="M125.6 145.69H125.51L112.28 143.22C112.176 143.201 112.081 143.149 112.008 143.072C111.936 142.994 111.891 142.895 111.88 142.79C111.865 142.685 111.885 142.578 111.935 142.484C111.985 142.391 112.064 142.316 112.16 142.27L124.35 136.58C124.421 136.543 124.5 136.524 124.58 136.524C124.66 136.524 124.739 136.543 124.81 136.58C124.878 136.62 124.936 136.675 124.98 136.741C125.023 136.807 125.051 136.882 125.06 136.96L126.06 145.13C126.065 145.2 126.057 145.27 126.034 145.337C126.012 145.403 125.976 145.464 125.929 145.517C125.883 145.569 125.826 145.611 125.762 145.641C125.699 145.671 125.63 145.688 125.56 145.69H125.6ZM114 142.51L125 144.57L124.14 137.76L114 142.51Z" fill="#231F20"/>
<path d="M189 137.15L125.59 145.15C124.926 143.901 124.48 142.549 124.27 141.15C124.126 139.747 124.224 138.33 124.56 136.96L187.96 128.96L189 137.15Z" fill="#68E1FD"/>
<path d="M125.6 145.69C125.513 145.689 125.427 145.666 125.352 145.622C125.276 145.578 125.214 145.516 125.17 145.44C124.469 144.142 124.002 142.73 123.79 141.27C123.636 139.807 123.734 138.329 124.08 136.9C124.104 136.803 124.157 136.715 124.232 136.649C124.307 136.583 124.401 136.541 124.5 136.53L187.91 128.48C188.042 128.468 188.173 128.507 188.277 128.589C188.381 128.671 188.45 128.789 188.47 128.92L189.47 137.09C189.481 137.155 189.478 137.222 189.46 137.286C189.443 137.35 189.412 137.409 189.37 137.46C189.33 137.511 189.28 137.553 189.223 137.584C189.167 137.615 189.104 137.634 189.04 137.64L125.64 145.69H125.6ZM124.98 137.48C124.72 138.685 124.652 139.924 124.78 141.15C124.959 142.369 125.334 143.551 125.89 144.65L188.45 136.71L187.54 129.54L124.98 137.48Z" fill="#231F20"/>
<path d="M199.154 135.871L189.015 137.157L187.98 128.993L198.118 127.706C198.718 127.63 199.324 127.796 199.802 128.166C200.28 128.536 200.591 129.081 200.667 129.681L201.129 133.322C201.205 133.922 201.04 134.527 200.669 135.005C200.299 135.483 199.754 135.795 199.154 135.871Z" fill="white"/>
<path d="M189 137.65C188.878 137.649 188.76 137.604 188.668 137.523C188.576 137.442 188.517 137.331 188.5 137.21L187.5 129.04C187.492 128.975 187.496 128.909 187.513 128.845C187.53 128.782 187.56 128.722 187.6 128.67C187.683 128.568 187.8 128.5 187.93 128.48L198.07 127.2C198.802 127.109 199.539 127.312 200.122 127.763C200.705 128.215 201.085 128.879 201.18 129.61L201.64 133.25C201.731 133.982 201.528 134.719 201.077 135.302C200.625 135.885 199.961 136.265 199.23 136.36L189.09 137.64L189 137.65ZM188.52 129.41L189.43 136.59L199.08 135.37C199.548 135.305 199.971 135.059 200.259 134.685C200.547 134.311 200.677 133.839 200.62 133.37L200.16 129.73C200.13 129.497 200.055 129.273 199.938 129.069C199.822 128.866 199.666 128.687 199.48 128.544C199.294 128.401 199.082 128.296 198.855 128.235C198.629 128.175 198.393 128.159 198.16 128.19L188.52 129.41Z" fill="#231F20"/>
<path d="M191.303 128.557L190.142 128.704L191.178 136.869L192.338 136.722L191.303 128.557Z" fill="#231F20"/>
<path d="M193.608 128.269L192.447 128.416L193.483 136.581L194.643 136.433L193.608 128.269Z" fill="#231F20"/>
<path d="M116.61 140.74L116.97 143.58L112.37 142.72L116.61 140.74Z" fill="#68E1FD"/>
<path d="M117 144.08H116.9L112.31 143.22C112.206 143.201 112.111 143.149 112.038 143.072C111.966 142.994 111.921 142.895 111.91 142.79C111.895 142.685 111.915 142.578 111.965 142.484C112.015 142.391 112.094 142.316 112.19 142.27L116.42 140.27C116.491 140.233 116.57 140.214 116.65 140.214C116.73 140.214 116.809 140.233 116.88 140.27C116.948 140.31 117.006 140.365 117.05 140.431C117.093 140.497 117.121 140.572 117.13 140.65L117.49 143.48C117.5 143.55 117.495 143.622 117.475 143.69C117.455 143.759 117.42 143.822 117.374 143.876C117.328 143.93 117.27 143.973 117.206 144.003C117.141 144.033 117.071 144.049 117 144.05V144.08ZM114 142.51L116.39 142.96L116.21 141.48L114 142.51Z" fill="#231F20"/>
<path d="M141.94 150.28C141.94 150.28 135.68 142.51 133.85 139.64C130.85 134.96 138.22 130.82 140.85 132.78C142.74 134.17 152.48 142.78 154.44 144.63" fill="white"/>
<path d="M141.94 150.78C141.865 150.78 141.791 150.763 141.723 150.731C141.655 150.698 141.596 150.649 141.55 150.59C141.3 150.28 135.26 142.77 133.43 139.9C132.802 138.941 132.556 137.782 132.741 136.65C132.926 135.519 133.529 134.499 134.43 133.79C136.28 132.06 139.43 131.08 141.23 132.38C143.03 133.68 152.88 142.38 154.86 144.27C154.908 144.315 154.947 144.37 154.973 144.43C155 144.49 155.015 144.555 155.017 144.621C155.019 144.687 155.008 144.752 154.984 144.814C154.961 144.876 154.925 144.932 154.88 144.98C154.835 145.028 154.78 145.066 154.72 145.093C154.66 145.12 154.595 145.135 154.529 145.137C154.463 145.139 154.398 145.128 154.336 145.104C154.274 145.081 154.218 145.045 154.17 145C152.17 143.12 142.49 134.55 140.63 133.19C139.43 132.31 136.8 132.94 135.11 134.52C134.4 135.086 133.926 135.896 133.778 136.791C133.63 137.687 133.82 138.606 134.31 139.37C136.11 142.19 142.31 149.89 142.37 149.97C142.412 150.02 142.444 150.078 142.464 150.141C142.483 150.204 142.49 150.27 142.483 150.335C142.477 150.4 142.457 150.463 142.426 150.521C142.394 150.579 142.351 150.629 142.3 150.67C142.251 150.712 142.193 150.743 142.131 150.762C142.069 150.781 142.004 150.787 141.94 150.78Z" fill="#231F20"/>
<path d="M204.72 167.23L170.47 193.22L186.4 235.76L247.43 232.77L204.72 167.23Z" fill="#231F20"/>
<path d="M186.4 236.26C186.298 236.261 186.199 236.23 186.115 236.173C186.031 236.116 185.967 236.035 185.93 235.94L170 193.4C169.961 193.301 169.955 193.191 169.984 193.088C170.013 192.985 170.075 192.895 170.16 192.83L204.41 166.83C204.465 166.788 204.528 166.758 204.595 166.742C204.662 166.727 204.732 166.726 204.8 166.74C204.867 166.752 204.931 166.777 204.988 166.815C205.045 166.853 205.093 166.902 205.13 166.96L247.83 232.5C247.881 232.573 247.911 232.658 247.917 232.746C247.923 232.834 247.905 232.923 247.865 233.002C247.825 233.081 247.764 233.147 247.69 233.194C247.615 233.242 247.529 233.268 247.44 233.27L186.44 236.27L186.4 236.26ZM171.07 193.4L186.74 235.25L246.53 232.32L204.59 168L171.07 193.4Z" fill="#231F20"/>
</svg>
