<svg width="1280" height="194" viewBox="0 0 1280 194" fill="none" xmlns="http://www.w3.org/2000/svg">
<path fill-rule="evenodd" clip-rule="evenodd" d="M-136 86.5239L-88 79.1589C-40 71.7938 56 57.0637 152 64.4287C248 71.7938 344 101.254 440 93.889C536 86.5239 632 42.3335 728 20.2383C824 -1.8569 920 -1.8569 1016 1.82564C1112 5.50817 1208 12.8732 1256 16.5558L1304 20.2383V197H1256C1208 197 1112 197 1016 197C920 197 824 197 728 197C632 197 536 197 440 197C344 197 248 197 152 197C56 197 -40 197 -88 197H-136V86.5239Z" fill="#0099FF"/>
</svg>
