<svg width="1280" height="100" viewBox="0 0 1280 100" fill="none" xmlns="http://www.w3.org/2000/svg">
<rect x="-189" width="1469" height="100" fill="#A344C5"/>
<path d="M1204.62 99.4882C1201.78 99.9092 1198.9 100.049 1196.02 99.9057C1189.1 99.5542 1182.28 97.5306 1176.46 93.7261C1173.88 92.0389 1171.42 89.9663 1170.08 87.1821C1168.27 83.401 1168.9 78.6145 1171.49 75.3212C1172.44 74.1334 1173.6 73.1378 1174.92 72.388C1175.11 72.2772 1175.31 72.1707 1175.51 72.0684C1177.71 70.9603 1180.17 70.5071 1182.61 70.7626C1186.77 71.2185 1190.6 73.7662 1192.81 77.3257C1194.79 80.4997 1195.47 84.2446 1195.88 87.998C1195.95 88.7052 1196.02 89.4145 1196.08 90.1196C1195.73 92.1624 1195.18 94.1648 1194.43 96.0969C1194.39 96.1911 1194.36 96.2879 1194.33 96.3867C1194.76 97.3112 1195.16 98.2442 1195.54 99.1857C1195.9 99.382 1196.31 99.4845 1196.72 99.4839H1204.61L1204.62 99.4882Z" fill="#3BA445"/>
<path d="M1195.38 99.6693C1195.33 99.6927 1195.27 99.7055 1195.22 99.7068C1195.16 99.7081 1195.1 99.6979 1195.05 99.6769C1194.99 99.6559 1194.95 99.6244 1194.91 99.5844C1194.86 99.5443 1194.83 99.4964 1194.81 99.4435C1194.78 99.3625 1194.74 99.2816 1194.71 99.2006C1194.4 98.4551 1194.08 97.7166 1193.75 96.9852C1189.46 87.5473 1183.06 79.2301 1175.05 72.6798C1175 72.6474 1174.97 72.6033 1174.94 72.5519C1174.92 72.5006 1174.91 72.444 1174.92 72.388C1174.93 72.3238 1174.95 72.2631 1174.99 72.2103C1175.03 72.1576 1175.08 72.1143 1175.14 72.0835C1175.2 72.0528 1175.26 72.0355 1175.32 72.0329C1175.39 72.0303 1175.45 72.0424 1175.51 72.0685C1175.54 72.083 1175.57 72.1016 1175.6 72.1238C1179.03 74.9276 1182.17 78.0634 1184.99 81.486C1187.81 84.9054 1190.28 88.5908 1192.39 92.4905C1192.97 93.5556 1193.51 94.6356 1194.03 95.7306C1194.13 95.9478 1194.23 96.1672 1194.33 96.3866C1194.76 97.3111 1195.16 98.2442 1195.54 99.1857C1195.55 99.2006 1195.56 99.2177 1195.56 99.2326C1195.58 99.2729 1195.59 99.3169 1195.6 99.3617C1195.6 99.4065 1195.59 99.4511 1195.57 99.4924C1195.55 99.5337 1195.53 99.5709 1195.5 99.6014C1195.46 99.6319 1195.42 99.655 1195.38 99.6693Z" fill="white"/>
<path d="M1167.25 71.5742C1171.82 71.5742 1175.52 67.8548 1175.52 63.2665C1175.52 58.6783 1171.82 54.9588 1167.25 54.9588C1162.68 54.9588 1158.98 58.6783 1158.98 63.2665C1158.98 67.8548 1162.68 71.5742 1167.25 71.5742Z" fill="#6C63FF"/>
<path d="M1166.43 66.4357C1166.25 66.4361 1166.06 66.3756 1165.92 66.2635L1165.91 66.2566L1163.96 64.7617C1163.87 64.6925 1163.8 64.6061 1163.74 64.5075C1163.68 64.4089 1163.65 64.3 1163.63 64.187C1163.62 64.0741 1163.62 63.9593 1163.65 63.8492C1163.68 63.7391 1163.73 63.6359 1163.8 63.5454C1163.87 63.455 1163.96 63.3791 1164.05 63.3221C1164.15 63.265 1164.26 63.228 1164.37 63.2131C1164.49 63.1981 1164.6 63.2056 1164.71 63.2351C1164.82 63.2645 1164.92 63.3154 1165.01 63.3847L1166.27 64.3544L1169.25 60.457C1169.32 60.3666 1169.4 60.2908 1169.5 60.2338C1169.6 60.1768 1169.71 60.1398 1169.82 60.1249C1169.93 60.11 1170.05 60.1174 1170.16 60.1469C1170.27 60.1763 1170.37 60.2272 1170.46 60.2965L1170.44 60.3217L1170.46 60.2968C1170.64 60.437 1170.76 60.6437 1170.79 60.8717C1170.82 61.0997 1170.76 61.3303 1170.62 61.513L1167.12 66.0972C1167.04 66.2028 1166.93 66.2883 1166.81 66.347C1166.7 66.4057 1166.56 66.4361 1166.43 66.4357Z" fill="white"/>
<path d="M1291.75 100H1112.25C1112.19 99.9998 1112.12 99.973 1112.07 99.9255C1112.03 99.8779 1112 99.8135 1112 99.7464C1112 99.6792 1112.03 99.6148 1112.07 99.5673C1112.12 99.5197 1112.19 99.4929 1112.25 99.4927H1291.75C1291.81 99.4929 1291.88 99.5197 1291.93 99.5673C1291.97 99.6148 1292 99.6792 1292 99.7464C1292 99.8135 1291.97 99.8779 1291.93 99.9255C1291.88 99.973 1291.81 99.9998 1291.75 100Z" fill="#3F3D56"/>
<path d="M1147.11 28.9587C1150.5 28.9587 1153.25 26.1987 1153.25 22.794C1153.25 19.3893 1150.5 16.6292 1147.11 16.6292C1143.72 16.6292 1140.97 19.3893 1140.97 22.794C1140.97 26.1987 1143.72 28.9587 1147.11 28.9587Z" fill="#2F2E41"/>
<path d="M1142.32 19.4701C1143.31 18.4739 1143.51 17.0607 1142.77 16.3135C1142.03 15.5664 1140.62 15.7683 1139.63 16.7645C1138.63 17.7607 1138.43 19.1739 1139.18 19.9211C1139.92 20.6682 1141.33 20.4663 1142.32 19.4701Z" fill="#2F2E41"/>
<path d="M1153.51 17.5124C1153.92 16.5408 1153.21 15.3044 1151.92 14.751C1150.63 14.1975 1149.25 14.5366 1148.84 15.5083C1148.42 16.48 1149.13 17.7163 1150.42 18.2698C1151.71 18.8232 1153.1 18.4841 1153.51 17.5124Z" fill="#2F2E41"/>
<path d="M1164.2 58.3856C1164.36 58.0896 1164.45 57.7629 1164.46 57.4288C1164.48 57.0946 1164.42 56.761 1164.29 56.4515C1164.17 56.142 1163.98 55.8641 1163.73 55.6374C1163.49 55.4107 1163.19 55.2406 1162.88 55.1393L1154.01 36.2959L1149.95 39.1531L1159.94 56.7771C1159.81 57.324 1159.88 57.9014 1160.14 58.3997C1160.4 58.8981 1160.84 59.2828 1161.36 59.4811C1161.89 59.6794 1162.47 59.6774 1162.99 59.4755C1163.51 59.2736 1163.95 58.8858 1164.2 58.3856Z" fill="#FFB8B8"/>
<path d="M1156.04 39.4396L1151.33 41.5551C1151.2 41.6153 1151.05 41.6457 1150.91 41.6444C1150.76 41.6431 1150.61 41.61 1150.48 41.5474C1150.35 41.4848 1150.23 41.3942 1150.14 41.2817C1150.04 41.1692 1149.97 41.0375 1149.93 40.8955L1148.54 35.9208C1148.24 35.2304 1148.22 34.4476 1148.49 33.744C1148.76 33.0405 1149.3 32.4736 1149.99 32.1677C1150.67 31.8617 1151.45 31.8417 1152.16 32.112C1152.86 32.3823 1153.42 32.9209 1153.73 33.6096L1156.49 37.9514C1156.57 38.0757 1156.62 38.2157 1156.64 38.3617C1156.66 38.5078 1156.65 38.6565 1156.6 38.7977C1156.56 38.9389 1156.49 39.0694 1156.39 39.1802C1156.3 39.2909 1156.18 39.3794 1156.04 39.4396Z" fill="#D81010"/>
<path d="M1134.29 60.2538C1134.61 60.1781 1134.92 60.0319 1135.18 59.8255C1135.44 59.619 1135.65 59.3574 1135.81 59.0589C1135.96 58.7605 1136.04 58.4325 1136.05 58.0982C1136.06 57.7638 1136 57.4311 1135.87 57.1236L1144.27 38.0644L1139.46 36.8489L1132.72 55.9657C1132.22 56.2213 1131.83 56.6521 1131.62 57.1765C1131.42 57.7009 1131.41 58.2825 1131.61 58.811C1131.8 59.3396 1132.18 59.7784 1132.67 60.0443C1133.17 60.3102 1133.74 60.3848 1134.29 60.2538Z" fill="#FFB8B8"/>
<path d="M1132 94.8003L1134.44 95.6937L1139.04 86.6536L1135.43 85.335L1132 94.8003Z" fill="#FFB8B8"/>
<path d="M1138.33 99.6956L1130.65 96.8875L1131.73 93.9076L1136.44 95.6308C1137.23 95.9185 1137.87 96.5084 1138.22 97.2707C1138.58 98.033 1138.61 98.9053 1138.33 99.6956Z" fill="#2F2E41"/>
<path d="M1137.78 89.5979C1137.63 89.598 1137.48 89.5646 1137.34 89.5002L1134.54 88.1644C1134.31 88.0558 1134.12 87.8647 1134.03 87.6285C1133.93 87.3924 1133.93 87.1284 1134.01 86.8884L1141.94 64.8478C1142 64.6653 1142.12 64.5052 1142.27 64.3861C1142.42 64.267 1142.61 64.1939 1142.8 64.1751C1142.99 64.1563 1143.19 64.1927 1143.36 64.2801C1143.53 64.3674 1143.67 64.5021 1143.77 64.6686L1147.97 71.6848C1148.06 71.8411 1148.11 72.0195 1148.11 72.2018C1148.11 72.384 1148.07 72.5635 1147.98 72.7218L1138.67 89.082C1138.58 89.2391 1138.45 89.3695 1138.29 89.4601C1138.14 89.5507 1137.96 89.5982 1137.78 89.5979Z" fill="#2F2E41"/>
<path d="M1147.31 29.4976C1150.18 29.4976 1152.52 27.1552 1152.52 24.2657C1152.52 21.3761 1150.18 19.0337 1147.31 19.0337C1144.43 19.0337 1142.1 21.3761 1142.1 24.2657C1142.1 27.1552 1144.43 29.4976 1147.31 29.4976Z" fill="#FFB8B8"/>
<path d="M1154.68 48.0534L1145.45 45.5058L1140.55 35.6518C1140.31 35.1784 1140.2 34.6524 1140.22 34.1236C1140.25 33.5949 1140.4 33.081 1140.68 32.6308C1140.96 32.1806 1141.35 31.809 1141.81 31.5513C1142.27 31.2935 1142.78 31.1583 1143.31 31.1583H1150.65C1151.41 31.1578 1152.15 31.4401 1152.71 31.951C1154.68 33.7221 1158.82 38.8282 1154.72 47.9643L1154.68 48.0534Z" fill="#D81010"/>
<path d="M1143.13 41.473L1138.46 39.276C1138.32 39.2135 1138.21 39.123 1138.11 39.0105C1138.02 38.8981 1137.95 38.7664 1137.91 38.6245C1137.87 38.4825 1137.86 38.3336 1137.88 38.188C1137.9 38.0423 1137.96 37.9032 1138.04 37.7803L1140.88 33.4725C1141.2 32.7911 1141.78 32.2659 1142.49 32.012C1143.19 31.7581 1143.97 31.7963 1144.65 32.1181C1145.33 32.4399 1145.85 33.0191 1146.11 33.7287C1146.36 34.4384 1146.33 35.2206 1146.01 35.9037L1144.54 40.8379C1144.5 40.9791 1144.43 41.1096 1144.33 41.2205C1144.23 41.3313 1144.11 41.4199 1143.98 41.4801C1143.85 41.5404 1143.7 41.571 1143.55 41.5697C1143.41 41.5685 1143.26 41.5355 1143.13 41.473Z" fill="#D81010"/>
<path d="M1148.78 97.2705H1151.38L1152.62 87.1972L1148.78 87.1974L1148.78 97.2705Z" fill="#FFB8B8"/>
<path d="M1156.4 99.6952L1148.23 99.6956L1148.23 96.5244L1153.24 96.5242C1154.08 96.5241 1154.88 96.8582 1155.47 97.4529C1156.07 98.0476 1156.4 98.8541 1156.4 99.6952Z" fill="#2F2E41"/>
<path d="M1149.77 93.4319C1149.53 93.4323 1149.3 93.3516 1149.12 93.2036C1148.94 93.0556 1148.82 92.8493 1148.77 92.6194C1148.02 89.0825 1144.14 70.9658 1141.11 61.634C1138.03 52.1396 1143.28 47.8151 1144.36 47.0446C1144.48 46.9628 1144.57 46.8516 1144.63 46.7224L1145.41 44.9829C1145.5 44.8033 1145.63 44.6511 1145.79 44.5443C1145.96 44.4376 1146.15 44.3808 1146.35 44.3808H1146.35C1152.25 44.4162 1154.24 46.2849 1154.82 47.0867C1154.9 47.2062 1154.96 47.3428 1154.99 47.4872C1155.02 47.6317 1155.01 47.7804 1154.98 47.9231L1151.24 63.3978C1151.22 63.4937 1151.22 63.5931 1151.23 63.691L1154.94 91.7881C1154.96 91.9232 1154.95 92.0605 1154.92 92.192C1154.88 92.3234 1154.82 92.4465 1154.74 92.554C1154.65 92.6614 1154.55 92.7512 1154.43 92.8179C1154.31 92.8846 1154.18 92.9271 1154.05 92.9427L1149.88 93.425C1149.85 93.4296 1149.81 93.4319 1149.77 93.4319Z" fill="#2F2E41"/>
<path d="M1141.83 20.9748C1143.02 21.7988 1144.44 22.2374 1145.88 22.2316C1145.37 22.5907 1144.78 22.8333 1144.16 22.9426C1146.08 23.3567 1148.07 23.368 1150 22.9756C1150.42 22.9066 1150.84 22.764 1151.22 22.5542C1151.41 22.4479 1151.57 22.3028 1151.7 22.1283C1151.83 21.9538 1151.92 21.7538 1151.97 21.5413C1152.1 20.8067 1151.53 20.1393 1150.94 19.6895C1150.03 19.0114 1148.99 18.5441 1147.88 18.3216C1146.77 18.0991 1145.62 18.1269 1144.53 18.403C1143.81 18.5889 1143.09 18.903 1142.63 19.4805C1142.16 20.0581 1142.03 20.9486 1142.47 21.5433L1141.83 20.9748Z" fill="#2F2E41"/>
<path d="M1265.53 81.488C1265.5 81.488 1265.48 81.4873 1265.47 81.4869L1262.05 81.4873V80.9804H1265.49C1265.57 80.9832 1267.19 81.0292 1268.68 79.207C1270.91 76.4912 1272.74 69.7682 1268.81 53.1625C1263.51 30.8338 1267.93 11.1076 1270.07 3.66292C1270.18 3.29461 1270.2 2.90666 1270.13 2.52975C1270.06 2.15284 1269.9 1.79728 1269.67 1.49117C1269.44 1.18507 1269.14 0.936791 1268.8 0.765972C1268.46 0.595153 1268.08 0.50647 1267.7 0.506925H1216.58C1216.19 0.507448 1215.81 0.600004 1215.46 0.777082C1215.12 0.954161 1214.82 1.21077 1214.59 1.52609C1213.68 2.78077 1212.43 5.19111 1211.65 9.54943L1211.16 9.45983C1211.95 5.00683 1213.24 2.52557 1214.18 1.22807C1214.46 0.84813 1214.82 0.538921 1215.23 0.325542C1215.65 0.112164 1216.11 0.00063109 1216.58 1.37964e-06H1267.7C1268.16 -0.00044312 1268.62 0.106527 1269.03 0.31246C1269.44 0.518393 1269.8 0.817646 1270.08 1.18658C1270.35 1.55551 1270.54 1.98401 1270.62 2.43823C1270.71 2.89245 1270.68 3.35993 1270.56 3.80376C1268.42 11.2098 1264.03 30.8336 1269.3 53.0452C1273.29 69.8844 1271.37 76.7531 1269.06 79.5499C1267.53 81.3946 1265.85 81.488 1265.53 81.488Z" fill="#E6E6E6"/>
<path d="M1256.32 90.7393C1256.29 90.7393 1256.27 90.7385 1256.26 90.7382L1252.84 90.7386V90.2316H1256.28C1256.36 90.2341 1257.98 90.2805 1259.47 88.4583C1261.7 85.7425 1263.53 79.0195 1259.59 62.4138C1254.3 40.085 1258.72 20.3588 1260.86 12.9142C1260.97 12.5459 1260.98 12.1579 1260.92 11.781C1260.85 11.4041 1260.69 11.0486 1260.46 10.7425C1260.23 10.4364 1259.93 10.1881 1259.59 10.0173C1259.25 9.84644 1258.87 9.75775 1258.49 9.75821H1207.37C1206.98 9.75873 1206.6 9.85129 1206.25 10.0284C1205.91 10.2054 1205.61 10.4621 1205.38 10.7774C1204.47 12.032 1203.22 14.4424 1202.44 18.8007L1201.95 18.7111C1202.74 14.2581 1204.03 11.7768 1204.97 10.4794C1205.24 10.0994 1205.61 9.7902 1206.02 9.57682C1206.44 9.36345 1206.9 9.25191 1207.37 9.25128H1258.49C1258.95 9.25084 1259.41 9.35781 1259.82 9.56374C1260.23 9.76968 1260.59 10.0689 1260.86 10.4379C1261.14 10.8068 1261.33 11.2353 1261.41 11.6895C1261.49 12.1437 1261.47 12.6112 1261.34 13.055C1259.21 20.4611 1254.82 40.0849 1260.09 62.2965C1264.08 79.1357 1262.16 86.0044 1259.85 88.8012C1258.32 90.6459 1256.64 90.7393 1256.32 90.7393Z" fill="#CCCCCC"/>
<path d="M1250.87 71.5487C1245.61 49.3372 1250 29.7118 1252.13 22.3073C1252.26 21.8635 1252.28 21.3961 1252.2 20.9419C1252.12 20.4878 1251.93 20.0594 1251.65 19.6905C1251.38 19.3216 1251.02 19.0223 1250.61 18.8162C1250.19 18.61 1249.74 18.5028 1249.28 18.5028H1198.16C1197.69 18.5033 1197.23 18.6146 1196.81 18.8278C1196.39 19.041 1196.03 19.35 1195.76 19.7298C1193.69 22.58 1189.41 32.0316 1194.19 58.1839C1196.75 72.175 1196.71 81.7139 1195.88 87.998C1195.41 91.5362 1194.69 94.0413 1194.03 95.7306L1193.96 95.9095C1193.82 96.2513 1193.75 96.6164 1193.75 96.9852C1193.74 97.4017 1193.83 97.8145 1193.99 98.1964C1194.16 98.5783 1194.4 98.9205 1194.71 99.2006C1194.91 99.389 1195.14 99.5469 1195.38 99.6693C1195.59 99.7738 1195.8 99.8532 1196.02 99.9057C1196.25 99.9614 1196.48 99.9893 1196.72 99.9888H1247.05C1247.06 99.9888 1247.08 99.9909 1247.11 99.9909C1247.43 99.9909 1249.11 99.8972 1250.63 98.0525C1252.95 95.2555 1254.87 88.3878 1250.87 71.5487ZM1250.26 97.7095C1248.77 99.5329 1247.14 99.4861 1247.07 99.484H1196.72C1196.31 99.4838 1195.92 99.3846 1195.56 99.1948C1195.21 99.005 1194.9 98.7306 1194.68 98.3954C1194.48 98.1056 1194.34 97.7758 1194.28 97.4289C1194.22 97.082 1194.24 96.7263 1194.33 96.3867C1194.36 96.2879 1194.39 96.1911 1194.43 96.097C1195.18 94.1648 1195.73 92.1624 1196.08 90.1197C1197.28 83.5693 1197.5 73.4616 1194.69 58.0923C1189.94 32.1339 1194.14 22.825 1196.16 20.028C1196.39 19.7132 1196.69 19.457 1197.04 19.2801C1197.39 19.1032 1197.77 19.0106 1198.16 19.0098H1249.28C1249.66 19.0095 1250.04 19.0983 1250.38 19.2691C1250.72 19.4399 1251.02 19.6881 1251.25 19.994C1251.48 20.3 1251.63 20.6553 1251.7 21.032C1251.77 21.4087 1251.75 21.7964 1251.65 22.1646C1249.5 29.6096 1245.09 49.3372 1250.38 71.6659C1254.32 88.2706 1252.49 94.9935 1250.26 97.7095Z" fill="#3F3D56"/>
<path d="M1226.59 42.689H1200.25C1199.71 42.689 1199.2 42.4754 1198.82 42.0951C1198.44 41.7148 1198.23 41.1991 1198.23 40.6613C1198.23 40.1235 1198.44 39.6078 1198.82 39.2275C1199.2 38.8473 1199.71 38.6336 1200.25 38.6336H1226.59C1227.12 38.6336 1227.64 38.8473 1228.01 39.2275C1228.39 39.6078 1228.61 40.1235 1228.61 40.6613C1228.61 41.1991 1228.39 41.7148 1228.01 42.0951C1227.64 42.4754 1227.12 42.689 1226.59 42.689Z" fill="#CCCCCC"/>
<path d="M1226.59 51.4228H1200.25C1199.71 51.4228 1199.2 51.2091 1198.82 50.8289C1198.44 50.4486 1198.23 49.9329 1198.23 49.3951C1198.23 48.8573 1198.44 48.3416 1198.82 47.9613C1199.2 47.581 1199.71 47.3674 1200.25 47.3674H1226.59C1227.12 47.3674 1227.64 47.581 1228.01 47.9613C1228.39 48.3416 1228.61 48.8573 1228.61 49.3951C1228.61 49.9329 1228.39 50.4486 1228.01 50.8289C1227.64 51.2091 1227.12 51.4228 1226.59 51.4228Z" fill="#CCCCCC"/>
<path d="M1228.71 60.3695H1202.37C1201.83 60.3695 1201.32 60.1559 1200.94 59.7756C1200.56 59.3954 1200.35 58.8796 1200.35 58.3419C1200.35 57.8041 1200.56 57.2883 1200.94 56.9081C1201.32 56.5278 1201.83 56.3142 1202.37 56.3142H1228.71C1229.24 56.3142 1229.76 56.5278 1230.14 56.9081C1230.51 57.2883 1230.73 57.8041 1230.73 58.3419C1230.73 58.8796 1230.51 59.3954 1230.14 59.7756C1229.76 60.1559 1229.24 60.3695 1228.71 60.3695Z" fill="#CCCCCC"/>
<path d="M1230.19 69.7423H1203.85C1203.32 69.7423 1202.8 69.5287 1202.43 69.1484C1202.05 68.7682 1201.83 68.2524 1201.83 67.7147C1201.83 67.1769 1202.05 66.6611 1202.43 66.2809C1202.8 65.9006 1203.32 65.687 1203.85 65.687H1230.19C1230.73 65.687 1231.24 65.9006 1231.62 66.2809C1232 66.6611 1232.21 67.1769 1232.21 67.7147C1232.21 68.2524 1232 68.7682 1231.62 69.1484C1231.24 69.5287 1230.73 69.7423 1230.19 69.7423Z" fill="#CCCCCC"/>
<path d="M1231.47 78.9022H1205.13C1204.59 78.9022 1204.08 78.6885 1203.7 78.3083C1203.32 77.928 1203.11 77.4123 1203.11 76.8745C1203.11 76.3367 1203.32 75.821 1203.7 75.4407C1204.08 75.0604 1204.59 74.8468 1205.13 74.8468H1231.47C1232 74.8468 1232.51 75.0604 1232.89 75.4407C1233.27 75.821 1233.48 76.3367 1233.48 76.8745C1233.48 77.4123 1233.27 77.928 1232.89 78.3083C1232.51 78.6885 1232 78.9022 1231.47 78.9022Z" fill="#CCCCCC"/>
<path d="M8.82955 56H6.61364L13.0227 38.5455H15.2045L21.6136 56H19.3977L14.1818 41.3068H14.0455L8.82955 56ZM9.64773 49.1818H18.5795V51.0568H9.64773V49.1818ZM24.3324 56V38.5455H30.2301C31.5994 38.5455 32.7188 38.7926 33.5881 39.2869C34.4631 39.7756 35.1108 40.4375 35.5312 41.2727C35.9517 42.108 36.1619 43.0398 36.1619 44.0682C36.1619 45.0966 35.9517 46.0312 35.5312 46.8722C35.1165 47.7131 34.4744 48.3835 33.6051 48.8835C32.7358 49.3778 31.6222 49.625 30.2642 49.625H26.0369V47.75H30.196C31.1335 47.75 31.8864 47.5881 32.4545 47.2642C33.0227 46.9403 33.4347 46.5028 33.6903 45.9517C33.9517 45.3949 34.0824 44.767 34.0824 44.0682C34.0824 43.3693 33.9517 42.7443 33.6903 42.1932C33.4347 41.642 33.0199 41.2102 32.446 40.8977C31.8722 40.5795 31.1108 40.4205 30.1619 40.4205H26.446V56H24.3324ZM39.5668 56V38.5455H41.6804V54.125H49.794V56H39.5668ZM55.1804 38.5455V56H53.0668V38.5455H55.1804ZM73.4638 44H71.3501C71.2251 43.392 71.0064 42.858 70.6939 42.3977C70.3871 41.9375 70.0121 41.5511 69.5689 41.2386C69.1314 40.9205 68.6456 40.6818 68.1115 40.5227C67.5774 40.3636 67.0206 40.2841 66.4411 40.2841C65.3842 40.2841 64.4268 40.5511 63.5689 41.0852C62.7166 41.6193 62.0376 42.4062 61.532 43.446C61.032 44.4858 60.782 45.7614 60.782 47.2727C60.782 48.7841 61.032 50.0597 61.532 51.0994C62.0376 52.1392 62.7166 52.9261 63.5689 53.4602C64.4268 53.9943 65.3842 54.2614 66.4411 54.2614C67.0206 54.2614 67.5774 54.1818 68.1115 54.0227C68.6456 53.8636 69.1314 53.6278 69.5689 53.3153C70.0121 52.9972 70.3871 52.608 70.6939 52.1477C71.0064 51.6818 71.2251 51.1477 71.3501 50.5455H73.4638C73.3047 51.4375 73.0149 52.2358 72.5945 52.9403C72.174 53.6449 71.6513 54.2443 71.0263 54.7386C70.4013 55.2273 69.6996 55.5994 68.9212 55.8551C68.1484 56.1108 67.3217 56.2386 66.4411 56.2386C64.9524 56.2386 63.6286 55.875 62.4695 55.1477C61.3104 54.4205 60.3984 53.3864 59.7337 52.0455C59.0689 50.7045 58.7365 49.1136 58.7365 47.2727C58.7365 45.4318 59.0689 43.8409 59.7337 42.5C60.3984 41.1591 61.3104 40.125 62.4695 39.3977C63.6286 38.6705 64.9524 38.3068 66.4411 38.3068C67.3217 38.3068 68.1484 38.4347 68.9212 38.6903C69.6996 38.946 70.4013 39.321 71.0263 39.8153C71.6513 40.304 72.174 40.9006 72.5945 41.6051C73.0149 42.304 73.3047 43.1023 73.4638 44ZM77.5952 56H75.3793L81.7884 38.5455H83.9702L90.3793 56H88.1634L82.9474 41.3068H82.8111L77.5952 56ZM78.4134 49.1818H87.3452V51.0568H78.4134V49.1818ZM106.323 44H104.21C104.085 43.392 103.866 42.858 103.553 42.3977C103.246 41.9375 102.871 41.5511 102.428 41.2386C101.991 40.9205 101.505 40.6818 100.971 40.5227C100.437 40.3636 99.88 40.2841 99.3004 40.2841C98.2436 40.2841 97.2862 40.5511 96.4283 41.0852C95.576 41.6193 94.897 42.4062 94.3913 43.446C93.8913 44.4858 93.6413 45.7614 93.6413 47.2727C93.6413 48.7841 93.8913 50.0597 94.3913 51.0994C94.897 52.1392 95.576 52.9261 96.4283 53.4602C97.2862 53.9943 98.2436 54.2614 99.3004 54.2614C99.88 54.2614 100.437 54.1818 100.971 54.0227C101.505 53.8636 101.991 53.6278 102.428 53.3153C102.871 52.9972 103.246 52.608 103.553 52.1477C103.866 51.6818 104.085 51.1477 104.21 50.5455H106.323C106.164 51.4375 105.874 52.2358 105.454 52.9403C105.033 53.6449 104.511 54.2443 103.886 54.7386C103.261 55.2273 102.559 55.5994 101.781 55.8551C101.008 56.1108 100.181 56.2386 99.3004 56.2386C97.8118 56.2386 96.4879 55.875 95.3288 55.1477C94.1697 54.4205 93.2578 53.3864 92.593 52.0455C91.9283 50.7045 91.5959 49.1136 91.5959 47.2727C91.5959 45.4318 91.9283 43.8409 92.593 42.5C93.2578 41.1591 94.1697 40.125 95.3288 39.3977C96.4879 38.6705 97.8118 38.3068 99.3004 38.3068C100.181 38.3068 101.008 38.4347 101.781 38.6903C102.559 38.946 103.261 39.321 103.886 39.8153C104.511 40.304 105.033 40.9006 105.454 41.6051C105.874 42.304 106.164 43.1023 106.323 44ZM111.852 38.5455V56H109.739V38.5455H111.852ZM130.817 47.2727C130.817 49.1136 130.485 50.7045 129.82 52.0455C129.156 53.3864 128.244 54.4205 127.085 55.1477C125.925 55.875 124.602 56.2386 123.113 56.2386C121.624 56.2386 120.3 55.875 119.141 55.1477C117.982 54.4205 117.07 53.3864 116.406 52.0455C115.741 50.7045 115.408 49.1136 115.408 47.2727C115.408 45.4318 115.741 43.8409 116.406 42.5C117.07 41.1591 117.982 40.125 119.141 39.3977C120.3 38.6705 121.624 38.3068 123.113 38.3068C124.602 38.3068 125.925 38.6705 127.085 39.3977C128.244 40.125 129.156 41.1591 129.82 42.5C130.485 43.8409 130.817 45.4318 130.817 47.2727ZM128.772 47.2727C128.772 45.7614 128.519 44.4858 128.013 43.446C127.513 42.4062 126.835 41.6193 125.977 41.0852C125.124 40.5511 124.17 40.2841 123.113 40.2841C122.056 40.2841 121.099 40.5511 120.241 41.0852C119.388 41.6193 118.71 42.4062 118.204 43.446C117.704 44.4858 117.454 45.7614 117.454 47.2727C117.454 48.7841 117.704 50.0597 118.204 51.0994C118.71 52.1392 119.388 52.9261 120.241 53.4602C121.099 53.9943 122.056 54.2614 123.113 54.2614C124.17 54.2614 125.124 53.9943 125.977 53.4602C126.835 52.9261 127.513 52.1392 128.013 51.0994C128.519 50.0597 128.772 48.7841 128.772 47.2727ZM122.192 36.7727L124.272 32.8182H126.624L123.965 36.7727H122.192ZM148.212 38.5455V56H146.167L136.656 42.2955H136.485V56H134.371V38.5455H136.417L145.962 52.2841H146.133V38.5455H148.212ZM173.237 44H171.124C170.999 43.392 170.78 42.858 170.467 42.3977C170.161 41.9375 169.786 41.5511 169.342 41.2386C168.905 40.9205 168.419 40.6818 167.885 40.5227C167.351 40.3636 166.794 40.2841 166.214 40.2841C165.158 40.2841 164.2 40.5511 163.342 41.0852C162.49 41.6193 161.811 42.4062 161.305 43.446C160.805 44.4858 160.555 45.7614 160.555 47.2727C160.555 48.7841 160.805 50.0597 161.305 51.0994C161.811 52.1392 162.49 52.9261 163.342 53.4602C164.2 53.9943 165.158 54.2614 166.214 54.2614C166.794 54.2614 167.351 54.1818 167.885 54.0227C168.419 53.8636 168.905 53.6278 169.342 53.3153C169.786 52.9972 170.161 52.608 170.467 52.1477C170.78 51.6818 170.999 51.1477 171.124 50.5455H173.237C173.078 51.4375 172.788 52.2358 172.368 52.9403C171.947 53.6449 171.425 54.2443 170.8 54.7386C170.175 55.2273 169.473 55.5994 168.695 55.8551C167.922 56.1108 167.095 56.2386 166.214 56.2386C164.726 56.2386 163.402 55.875 162.243 55.1477C161.084 54.4205 160.172 53.3864 159.507 52.0455C158.842 50.7045 158.51 49.1136 158.51 47.2727C158.51 45.4318 158.842 43.8409 159.507 42.5C160.172 41.1591 161.084 40.125 162.243 39.3977C163.402 38.6705 164.726 38.3068 166.214 38.3068C167.095 38.3068 167.922 38.4347 168.695 38.6903C169.473 38.946 170.175 39.321 170.8 39.8153C171.425 40.304 171.947 40.9006 172.368 41.6051C172.788 42.304 173.078 43.1023 173.237 44ZM176.653 56V38.5455H182.55C183.914 38.5455 185.033 38.7784 185.908 39.2443C186.783 39.7045 187.431 40.3381 187.852 41.1449C188.272 41.9517 188.482 42.8693 188.482 43.8977C188.482 44.9261 188.272 45.8381 187.852 46.6335C187.431 47.429 186.786 48.054 185.917 48.5085C185.048 48.9574 183.937 49.1818 182.585 49.1818H177.812V47.2727H182.516C183.448 47.2727 184.198 47.1364 184.766 46.8636C185.34 46.5909 185.755 46.2045 186.011 45.7045C186.272 45.1989 186.403 44.5966 186.403 43.8977C186.403 43.1989 186.272 42.5881 186.011 42.0653C185.749 41.5426 185.332 41.1392 184.758 40.8551C184.184 40.5653 183.425 40.4205 182.482 40.4205H178.766V56H176.653ZM184.869 48.1591L189.164 56H186.71L182.482 48.1591H184.869ZM203.459 38.5455H205.572V50.1023C205.572 51.2955 205.291 52.3608 204.729 53.2983C204.172 54.2301 203.385 54.9659 202.368 55.5057C201.351 56.0398 200.158 56.3068 198.788 56.3068C197.419 56.3068 196.226 56.0398 195.209 55.5057C194.192 54.9659 193.402 54.2301 192.839 53.2983C192.283 52.3608 192.004 51.2955 192.004 50.1023V38.5455H194.118V49.9318C194.118 50.7841 194.305 51.5426 194.68 52.2074C195.055 52.8665 195.589 53.3864 196.283 53.767C196.982 54.142 197.817 54.3295 198.788 54.3295C199.76 54.3295 200.595 54.142 201.294 53.767C201.993 53.3864 202.527 52.8665 202.896 52.2074C203.271 51.5426 203.459 50.7841 203.459 49.9318V38.5455ZM215.18 56H209.793V38.5455H215.418C217.112 38.5455 218.56 38.8949 219.765 39.5938C220.969 40.2869 221.893 41.2841 222.535 42.5852C223.177 43.8807 223.498 45.4318 223.498 47.2386C223.498 49.0568 223.174 50.6222 222.526 51.9347C221.879 53.2415 220.935 54.2472 219.697 54.9517C218.458 55.6506 216.952 56 215.18 56ZM211.907 54.125H215.043C216.487 54.125 217.683 53.8466 218.631 53.2898C219.58 52.733 220.288 51.9403 220.754 50.9119C221.219 49.8835 221.452 48.6591 221.452 47.2386C221.452 45.8295 221.222 44.6165 220.762 43.5994C220.302 42.5767 219.614 41.7926 218.7 41.2472C217.785 40.696 216.646 40.4205 215.282 40.4205H211.907V54.125ZM232.839 40.4205V38.5455H245.93V40.4205H240.441V56H238.327V40.4205H232.839ZM247.869 56H245.653L252.062 38.5455H254.244L260.653 56H258.437L253.221 41.3068H253.085L247.869 56ZM248.687 49.1818H257.619V51.0568H248.687V49.1818ZM272.917 42.9091C272.815 42.0455 272.4 41.375 271.673 40.8977C270.945 40.4205 270.053 40.1818 268.996 40.1818C268.224 40.1818 267.548 40.3068 266.968 40.5568C266.394 40.8068 265.945 41.1506 265.621 41.5881C265.303 42.0256 265.144 42.5227 265.144 43.0795C265.144 43.5455 265.255 43.946 265.477 44.2812C265.704 44.6108 265.994 44.8864 266.346 45.108C266.698 45.3239 267.067 45.5028 267.454 45.6449C267.84 45.7812 268.195 45.892 268.519 45.9773L270.292 46.4545C270.746 46.5739 271.252 46.7386 271.809 46.9489C272.371 47.1591 272.908 47.446 273.42 47.8097C273.937 48.1676 274.363 48.6278 274.698 49.1903C275.033 49.7528 275.201 50.4432 275.201 51.2614C275.201 52.2045 274.954 53.0568 274.46 53.8182C273.971 54.5795 273.255 55.1847 272.312 55.6335C271.374 56.0824 270.235 56.3068 268.894 56.3068C267.644 56.3068 266.562 56.1051 265.647 55.7017C264.738 55.2983 264.022 54.7358 263.499 54.0142C262.982 53.2926 262.69 52.4545 262.621 51.5H264.803C264.86 52.1591 265.082 52.7045 265.468 53.1364C265.86 53.5625 266.354 53.8807 266.951 54.0909C267.553 54.2955 268.201 54.3977 268.894 54.3977C269.701 54.3977 270.425 54.267 271.067 54.0057C271.71 53.7386 272.218 53.3693 272.593 52.8977C272.968 52.4205 273.156 51.8636 273.156 51.2273C273.156 50.6477 272.994 50.1761 272.67 49.8125C272.346 49.4489 271.92 49.1534 271.391 48.9261C270.863 48.6989 270.292 48.5 269.678 48.3295L267.531 47.7159C266.167 47.3239 265.087 46.7642 264.292 46.0369C263.496 45.3097 263.099 44.358 263.099 43.1818C263.099 42.2045 263.363 41.3523 263.891 40.625C264.425 39.892 265.141 39.3239 266.039 38.9205C266.942 38.5114 267.951 38.3068 269.065 38.3068C270.19 38.3068 271.19 38.5085 272.065 38.9119C272.94 39.3097 273.633 39.8551 274.144 40.5483C274.661 41.2415 274.934 42.0284 274.962 42.9091H272.917ZM278.676 56V38.5455H280.79V47.2045H280.994L288.835 38.5455H291.597L284.267 46.4205L291.597 56H289.04L282.972 47.8864L280.79 50.3409V56H278.676ZM298.958 46.3352V48.2102H291.322V46.3352H298.958ZM302.77 56V38.5455H304.884V54.125H312.997V56H302.77ZM318.384 38.5455V56H316.27V38.5455H318.384ZM332.167 42.9091C332.065 42.0455 331.65 41.375 330.923 40.8977C330.195 40.4205 329.303 40.1818 328.246 40.1818C327.474 40.1818 326.798 40.3068 326.218 40.5568C325.644 40.8068 325.195 41.1506 324.871 41.5881C324.553 42.0256 324.394 42.5227 324.394 43.0795C324.394 43.5455 324.505 43.946 324.727 44.2812C324.954 44.6108 325.244 44.8864 325.596 45.108C325.948 45.3239 326.317 45.5028 326.704 45.6449C327.09 45.7812 327.445 45.892 327.769 45.9773L329.542 46.4545C329.996 46.5739 330.502 46.7386 331.059 46.9489C331.621 47.1591 332.158 47.446 332.67 47.8097C333.187 48.1676 333.613 48.6278 333.948 49.1903C334.283 49.7528 334.451 50.4432 334.451 51.2614C334.451 52.2045 334.204 53.0568 333.71 53.8182C333.221 54.5795 332.505 55.1847 331.562 55.6335C330.624 56.0824 329.485 56.3068 328.144 56.3068C326.894 56.3068 325.812 56.1051 324.897 55.7017C323.988 55.2983 323.272 54.7358 322.749 54.0142C322.232 53.2926 321.94 52.4545 321.871 51.5H324.053C324.11 52.1591 324.332 52.7045 324.718 53.1364C325.11 53.5625 325.604 53.8807 326.201 54.0909C326.803 54.2955 327.451 54.3977 328.144 54.3977C328.951 54.3977 329.675 54.267 330.317 54.0057C330.96 53.7386 331.468 53.3693 331.843 52.8977C332.218 52.4205 332.406 51.8636 332.406 51.2273C332.406 50.6477 332.244 50.1761 331.92 49.8125C331.596 49.4489 331.17 49.1534 330.641 48.9261C330.113 48.6989 329.542 48.5 328.928 48.3295L326.781 47.7159C325.417 47.3239 324.337 46.7642 323.542 46.0369C322.746 45.3097 322.349 44.358 322.349 43.1818C322.349 42.2045 322.613 41.3523 323.141 40.625C323.675 39.892 324.391 39.3239 325.289 38.9205C326.192 38.5114 327.201 38.3068 328.315 38.3068C329.44 38.3068 330.44 38.5085 331.315 38.9119C332.19 39.3097 332.883 39.8551 333.394 40.5483C333.911 41.2415 334.184 42.0284 334.212 42.9091H332.167ZM336.972 40.4205V38.5455H350.062V40.4205H344.574V56H342.46V40.4205H336.972Z" fill="white"/>
</svg>
