<svg width="158" height="94" viewBox="0 0 158 94" fill="none" xmlns="http://www.w3.org/2000/svg">
<g clip-path="url(#clip0_7_21)">
<path d="M81.3021 93.5189C78.8042 93.9146 76.2763 94.0461 73.7546 93.9114C67.6742 93.581 61.6943 91.6787 56.584 88.1025C54.3182 86.5166 52.1567 84.5683 50.9839 81.9512C49.392 78.397 49.9487 73.8976 52.2219 70.802C53.0511 69.6854 54.071 68.7495 55.2268 68.0447C55.398 67.9406 55.573 67.8404 55.7499 67.7443C57.6758 66.7027 59.8389 66.2767 61.983 66.5169C65.6281 66.9454 68.9923 69.3402 70.936 72.6862C72.6673 75.6697 73.2706 79.1899 73.6262 82.7181C73.6932 83.3829 73.7509 84.0497 73.8067 84.7124C73.4969 86.6327 73.0099 88.5149 72.3527 90.3311C72.3193 90.4196 72.2919 90.5106 72.2708 90.6034C72.6432 91.4725 72.9975 92.3495 73.3339 93.2346C73.6499 93.4191 74.0039 93.5154 74.3634 93.5149H81.2872L81.3021 93.5189Z" fill="#3BA445"/>
<path d="M73.1906 93.6891C73.1447 93.7111 73.0952 93.7231 73.0449 93.7244C72.9947 93.7256 72.9447 93.7161 72.8979 93.6963C72.8511 93.6765 72.8085 93.647 72.7724 93.6093C72.7364 93.5716 72.7077 93.5266 72.688 93.4769C72.6582 93.4008 72.6302 93.3247 72.6004 93.2486C72.3324 92.5477 72.0512 91.8536 71.7571 91.1661C67.9912 82.2945 62.3741 74.4762 55.3422 68.319C55.3019 68.2886 55.27 68.2471 55.2497 68.1988C55.2294 68.1506 55.2215 68.0973 55.2269 68.0447C55.2371 67.9843 55.2598 67.9273 55.2934 67.8777C55.327 67.8282 55.3706 67.7874 55.4209 67.7585C55.4712 67.7296 55.527 67.7134 55.584 67.7109C55.6409 67.7084 55.6977 67.7199 55.75 67.7443C55.778 67.758 55.8043 67.7755 55.8282 67.7964C58.8367 70.4319 61.5967 73.3796 64.0681 76.5968C66.5401 79.8111 68.7167 83.2753 70.5674 86.9411C71.072 87.9423 71.551 88.9575 72.0046 89.9867C72.0941 90.191 72.1835 90.3972 72.2709 90.6034C72.6432 91.4725 72.9976 92.3495 73.334 93.2345C73.3396 93.2486 73.3451 93.2646 73.3508 93.2786C73.3679 93.3165 73.3773 93.3579 73.3784 93.4C73.3795 93.4421 73.3722 93.484 73.357 93.5228C73.3419 93.5617 73.3192 93.5966 73.2905 93.6253C73.2618 93.654 73.2277 93.6757 73.1906 93.6891Z" fill="white"/>
<path d="M48.4985 67.2798C52.5085 67.2798 55.7592 63.7835 55.7592 59.4705C55.7592 55.1576 52.5085 51.6613 48.4985 51.6613C44.4885 51.6613 41.2378 55.1576 41.2378 59.4705C41.2378 63.7835 44.4885 67.2798 48.4985 67.2798Z" fill="#6C63FF"/>
<path d="M47.7788 62.4496C47.6154 62.4499 47.4564 62.3931 47.3257 62.2877L47.3176 62.2812L45.6113 60.876C45.5322 60.8109 45.4658 60.7297 45.4159 60.637C45.366 60.5443 45.3336 60.442 45.3205 60.3358C45.3075 60.2296 45.3139 60.1217 45.3396 60.0182C45.3653 59.9147 45.4097 59.8177 45.4703 59.7327C45.5309 59.6477 45.6064 59.5763 45.6926 59.5227C45.7788 59.4691 45.874 59.4343 45.9727 59.4203C46.0715 59.4062 46.1718 59.4133 46.268 59.4409C46.3642 59.4686 46.4544 59.5164 46.5334 59.5816L47.6386 60.4931L50.2504 56.8296C50.311 56.7446 50.3865 56.6733 50.4727 56.6197C50.5589 56.5662 50.6541 56.5314 50.7528 56.5174C50.8515 56.5033 50.9518 56.5104 51.048 56.5381C51.1441 56.5657 51.2343 56.6135 51.3133 56.6787L51.2971 56.7024L51.3137 56.679C51.4731 56.8107 51.5773 57.0051 51.6036 57.2194C51.6299 57.4337 51.5761 57.6505 51.454 57.8222L48.3819 62.1314C48.3108 62.2307 48.2195 62.311 48.1149 62.3662C48.0103 62.4214 47.8953 62.4499 47.7788 62.4496Z" fill="white"/>
<path d="M157.778 94H0.221642C0.162962 93.9998 0.106745 93.9746 0.0653117 93.9299C0.0238786 93.8852 0.000610352 93.8247 0.000610352 93.7616C0.000610352 93.6985 0.0238786 93.6379 0.0653117 93.5932C0.106745 93.5485 0.162962 93.5233 0.221642 93.5232H157.778C157.837 93.5233 157.893 93.5485 157.935 93.5932C157.976 93.6379 157.999 93.6985 157.999 93.7616C157.999 93.8247 157.976 93.8852 157.935 93.9299C157.893 93.9746 157.837 93.9998 157.778 94Z" fill="#3F3D56"/>
<path d="M30.8201 27.2212C33.7957 27.2212 36.2079 24.6268 36.2079 21.4264C36.2079 18.2259 33.7957 15.6315 30.8201 15.6315C27.8445 15.6315 25.4323 18.2259 25.4323 21.4264C25.4323 24.6268 27.8445 27.2212 30.8201 27.2212Z" fill="#2F2E41"/>
<path d="M26.6146 18.3019C27.4852 17.3655 27.6617 16.037 27.0087 15.3347C26.3557 14.6324 25.1206 14.8222 24.2499 15.7586C23.3793 16.695 23.2028 18.0235 23.8558 18.7258C24.5088 19.4281 25.7439 19.2383 26.6146 18.3019Z" fill="#2F2E41"/>
<path d="M36.4356 16.4617C36.7984 15.5483 36.1745 14.3861 35.0422 13.8659C33.9099 13.3457 32.6979 13.6644 32.3352 14.5778C31.9724 15.4912 32.5963 16.6534 33.7286 17.1736C34.8609 17.6938 36.0729 17.3751 36.4356 16.4617Z" fill="#2F2E41"/>
<path d="M45.823 54.8825C45.9591 54.6042 46.0368 54.2972 46.0507 53.983C46.0646 53.6689 46.0143 53.3553 45.9033 53.0644C45.7923 52.7735 45.6234 52.5122 45.4083 52.2991C45.1933 52.086 44.9375 51.9262 44.6589 51.8309L36.8738 34.1181L33.3127 36.8039L42.0849 53.3705C41.9672 53.8846 42.0288 54.4273 42.2582 54.8957C42.4876 55.3642 42.8688 55.7259 43.3295 55.9122C43.7903 56.0986 44.2986 56.0967 44.7582 55.9069C45.2177 55.7172 45.5966 55.3526 45.823 54.8825Z" fill="#FFB8B8"/>
<path d="M38.6591 37.0732L34.5245 39.0618C34.4068 39.1183 34.2792 39.147 34.1504 39.1457C34.0215 39.1445 33.8944 39.1134 33.7777 39.0546C33.661 38.9957 33.5575 38.9105 33.4742 38.8048C33.3909 38.699 33.3298 38.5752 33.295 38.4418L32.0757 33.7656C31.81 33.1166 31.7944 32.3807 32.0323 31.7194C32.2703 31.0581 32.7423 30.5252 33.345 30.2376C33.9477 29.95 34.6318 29.9312 35.2474 30.1853C35.8629 30.4394 36.3597 30.9456 36.6287 31.593L39.0492 35.6743C39.1185 35.7912 39.1635 35.9227 39.1812 36.06C39.199 36.1973 39.189 36.3371 39.152 36.4698C39.1149 36.6026 39.0518 36.7252 38.9667 36.8293C38.8816 36.9335 38.7767 37.0166 38.6591 37.0732Z" fill="#D81010"/>
<path d="M19.5638 56.6386C19.8486 56.5674 20.1155 56.43 20.3455 56.2359C20.5756 56.0419 20.7633 55.7959 20.8955 55.5154C21.0276 55.2349 21.101 54.9266 21.1104 54.6123C21.1197 54.298 21.0649 53.9853 20.9498 53.6962L28.3227 35.7805L24.105 34.638L18.1839 52.6078C17.7453 52.848 17.4038 53.2529 17.2241 53.7459C17.0445 54.2388 17.0392 54.7855 17.2093 55.2824C17.3794 55.7792 17.713 56.1917 18.147 56.4416C18.5809 56.6916 19.085 56.7617 19.5638 56.6386Z" fill="#FFB8B8"/>
<path d="M17.554 89.1123L19.6987 89.952L23.7313 81.4544L20.5659 80.2149L17.554 89.1123Z" fill="#FFB8B8"/>
<path d="M23.1099 93.7138L16.3694 91.0742L17.3176 88.2732L21.4538 89.893C22.1445 90.1634 22.707 90.718 23.0176 91.4345C23.3281 92.1511 23.3613 92.971 23.1099 93.7138Z" fill="#2F2E41"/>
<path d="M22.627 84.2221C22.4954 84.2221 22.3654 84.1907 22.2465 84.1302L19.7817 82.8745C19.5796 82.7725 19.4204 82.5928 19.3353 82.3708C19.2503 82.1488 19.2456 81.9007 19.3221 81.6751L26.2782 60.9569C26.3359 60.7854 26.4375 60.6349 26.5715 60.5229C26.7054 60.411 26.8661 60.3422 27.0349 60.3246C27.2037 60.3069 27.3738 60.3412 27.5252 60.4233C27.6767 60.5054 27.8034 60.632 27.8906 60.7884L31.5698 67.3837C31.6517 67.5306 31.6958 67.6984 31.6975 67.8697C31.6992 68.041 31.6585 68.2096 31.5795 68.3584L23.4089 83.7371C23.3298 83.8847 23.2158 84.0073 23.0785 84.0925C22.9412 84.1776 22.7855 84.2223 22.627 84.2221Z" fill="#2F2E41"/>
<path d="M30.9909 27.7278C33.5163 27.7278 35.5635 25.5259 35.5635 22.8097C35.5635 20.0936 33.5163 17.8917 30.9909 17.8917C28.4656 17.8917 26.4183 20.0936 26.4183 22.8097C26.4183 25.5259 28.4656 27.7278 30.9909 27.7278Z" fill="#FFB8B8"/>
<path d="M37.4598 45.1702L29.3636 42.7754L25.0575 33.5127C24.8506 33.0677 24.7529 32.5732 24.7737 32.0762C24.7945 31.5792 24.9331 31.0962 25.1763 30.673C25.4195 30.2498 25.7592 29.9004 26.1632 29.6582C26.5673 29.4159 27.0221 29.2887 27.4847 29.2888H33.9262C34.5948 29.2883 35.24 29.5537 35.7376 30.0339C37.4656 31.6988 41.0959 36.4985 37.4949 45.0864L37.4598 45.1702Z" fill="#D81010"/>
<path d="M27.3247 38.9846L23.2226 36.9195C23.1059 36.8607 23.0024 36.7756 22.919 36.6699C22.8356 36.5642 22.7744 36.4404 22.7395 36.307C22.7046 36.1736 22.6969 36.0336 22.7169 35.8967C22.7368 35.7598 22.7839 35.6291 22.8551 35.5135L25.348 31.4641C25.6309 30.8237 26.1385 30.33 26.7593 30.0913C27.3802 29.8526 28.0636 29.8885 28.6599 30.191C29.2563 30.4935 29.7167 31.038 29.9404 31.705C30.164 32.3721 30.1326 33.1073 29.853 33.7495L28.5639 38.3876C28.527 38.5204 28.4639 38.6431 28.3789 38.7472C28.2939 38.8514 28.189 38.9347 28.0714 38.9913C27.9538 39.048 27.8262 39.0767 27.6973 39.0756C27.5685 39.0744 27.4414 39.0434 27.3247 38.9846Z" fill="#D81010"/>
<path d="M32.2875 91.4342H34.5698L35.6558 81.9654L32.287 81.9656L32.2875 91.4342Z" fill="#FFB8B8"/>
<path d="M38.9718 93.7135L31.7984 93.7139L31.7983 90.733L36.2002 90.7327C36.9352 90.7327 37.6402 91.0467 38.16 91.6057C38.6797 92.1647 38.9718 92.9229 38.9718 93.7135Z" fill="#2F2E41"/>
<path d="M33.1493 87.826C32.9441 87.8263 32.745 87.7505 32.5857 87.6114C32.4264 87.4723 32.3166 87.2783 32.2747 87.0622C31.6186 83.7375 28.2112 66.7078 25.5518 57.9359C22.8459 49.0113 27.4542 44.9462 28.4054 44.222C28.5067 44.145 28.5872 44.0405 28.6387 43.9191L29.3298 42.2839C29.4014 42.1151 29.5167 41.972 29.6618 41.8717C29.807 41.7713 29.9759 41.718 30.1484 41.718H30.154C35.3349 41.7512 37.0766 43.5078 37.5849 44.2615C37.6599 44.3738 37.7113 44.5023 37.7355 44.638C37.7598 44.7738 37.7563 44.9136 37.7253 45.0477L34.4472 59.5939C34.4269 59.6841 34.4223 59.7776 34.4336 59.8696L37.695 86.2809C37.7107 86.4078 37.7027 86.5368 37.6715 86.6604C37.6404 86.784 37.5866 86.8997 37.5134 87.0007C37.4403 87.1018 37.3491 87.1861 37.2453 87.2488C37.1415 87.3116 37.0271 87.3515 36.9089 87.3662L33.2546 87.8195C33.2196 87.8239 33.1845 87.826 33.1493 87.826Z" fill="#2F2E41"/>
<path d="M26.1863 19.7163C27.2312 20.4909 28.4714 20.9031 29.7404 20.8977C29.2878 21.2353 28.7724 21.4633 28.2299 21.5661C29.9172 21.9553 31.661 21.9659 33.3523 21.597C33.7282 21.5322 34.0909 21.3982 34.4246 21.2009C34.5908 21.101 34.7357 20.9647 34.8497 20.8006C34.9637 20.6366 35.0444 20.4486 35.0864 20.2488C35.1988 19.5583 34.6986 18.9309 34.1787 18.5081C33.3827 17.8707 32.4649 17.4315 31.4917 17.2223C30.5186 17.0132 29.5143 17.0393 28.5517 17.2988C27.9231 17.4735 27.2934 17.7688 26.8852 18.3117C26.4769 18.8546 26.356 19.6916 26.7449 20.2507L26.1863 19.7163Z" fill="#2F2E41"/>
<path d="M110.122 41.0487C111.458 41.0487 112.542 39.8832 112.542 38.4456C112.542 37.0079 111.458 35.8425 110.122 35.8425C108.785 35.8425 107.701 37.0079 107.701 38.4456C107.701 39.8832 108.785 41.0487 110.122 41.0487Z" fill="#6C63FF"/>
<path d="M109.882 39.4386C109.827 39.4387 109.774 39.4198 109.731 39.3846L109.728 39.3825L109.159 38.9141C109.133 38.8924 109.111 38.8654 109.094 38.8344C109.077 38.8035 109.066 38.7694 109.062 38.7339C109.058 38.6985 109.06 38.6625 109.068 38.628C109.077 38.5934 109.092 38.561 109.112 38.5326C109.132 38.5043 109.157 38.4805 109.186 38.4626C109.215 38.4447 109.247 38.4331 109.28 38.4285C109.312 38.4238 109.346 38.4262 109.378 38.4355C109.41 38.4448 109.44 38.4608 109.467 38.4826L109.835 38.7864L110.706 37.5653C110.726 37.5369 110.751 37.5132 110.78 37.4953C110.808 37.4775 110.84 37.4659 110.873 37.4612C110.906 37.4565 110.939 37.4589 110.971 37.4681C111.003 37.4773 111.034 37.4933 111.06 37.515C111.113 37.5589 111.148 37.6238 111.157 37.6952C111.165 37.7666 111.147 37.8389 111.107 37.8961L110.083 39.3325C110.059 39.3656 110.029 39.3924 109.994 39.4108C109.959 39.4292 109.921 39.4387 109.882 39.4386Z" fill="white"/>
<path d="M110.122 48.6577C111.458 48.6577 112.542 47.4923 112.542 46.0546C112.542 44.617 111.458 43.4515 110.122 43.4515C108.785 43.4515 107.701 44.617 107.701 46.0546C107.701 47.4923 108.785 48.6577 110.122 48.6577Z" fill="#6C63FF"/>
<path d="M109.882 47.0476C109.827 47.0478 109.774 47.0288 109.731 46.9937L109.728 46.9915L109.159 46.5231C109.133 46.5015 109.111 46.4744 109.094 46.4435C109.077 46.4126 109.066 46.3784 109.062 46.343C109.058 46.3075 109.06 46.2715 109.068 46.237C109.077 46.2024 109.092 46.1701 109.112 46.1417C109.132 46.1133 109.157 46.0895 109.186 46.0716C109.215 46.0537 109.247 46.0422 109.28 46.0375C109.312 46.0329 109.346 46.0352 109.378 46.0445C109.41 46.0538 109.44 46.0698 109.467 46.0917L109.835 46.3955L110.706 45.1743C110.726 45.146 110.751 45.1222 110.78 45.1044C110.808 45.0865 110.84 45.0749 110.873 45.0702C110.906 45.0656 110.939 45.0679 110.971 45.0771C111.003 45.0864 111.034 45.1023 111.06 45.124C111.113 45.1679 111.148 45.2328 111.157 45.3043C111.165 45.3757 111.147 45.4479 111.107 45.5052L110.083 46.9416C110.059 46.9747 110.029 47.0015 109.994 47.0199C109.959 47.0382 109.921 47.0478 109.882 47.0476Z" fill="white"/>
<path d="M111.425 57.4681C112.761 57.4681 113.845 56.3027 113.845 54.865C113.845 53.4274 112.761 52.262 111.425 52.262C110.088 52.262 109.005 53.4274 109.005 54.865C109.005 56.3027 110.088 57.4681 111.425 57.4681Z" fill="#6C63FF"/>
<path d="M111.185 55.8581C111.13 55.8582 111.077 55.8393 111.034 55.8041L111.031 55.802L110.462 55.3336C110.436 55.3119 110.414 55.2848 110.397 55.2539C110.38 55.223 110.37 55.1889 110.365 55.1534C110.361 55.118 110.363 55.082 110.371 55.0474C110.38 55.0129 110.395 54.9805 110.415 54.9521C110.435 54.9238 110.46 54.9 110.489 54.8821C110.518 54.8642 110.55 54.8526 110.583 54.848C110.616 54.8433 110.649 54.8457 110.681 54.855C110.713 54.8643 110.743 54.8803 110.77 54.9021L111.138 55.2059L112.009 53.9848C112.029 53.9564 112.054 53.9327 112.083 53.9148C112.112 53.897 112.143 53.8854 112.176 53.8807C112.209 53.876 112.243 53.8784 112.275 53.8876C112.307 53.8968 112.337 53.9128 112.363 53.9345C112.416 53.9784 112.451 54.0433 112.46 54.1147C112.469 54.1861 112.451 54.2584 112.41 54.3156L111.386 55.752C111.362 55.7851 111.332 55.8119 111.297 55.8303C111.262 55.8487 111.224 55.8582 111.185 55.8581Z" fill="white"/>
<path d="M134.763 76.5987C134.738 76.5987 134.722 76.598 134.716 76.5977L131.712 76.598V76.1215H134.727C134.797 76.1242 136.221 76.1675 137.534 74.4546C139.49 71.9017 141.096 65.5821 137.641 49.9727C132.994 28.9837 136.87 10.4411 138.751 3.44315C138.844 3.09693 138.861 2.73226 138.8 2.37796C138.739 2.02367 138.602 1.68945 138.401 1.4017C138.199 1.11396 137.938 0.880584 137.638 0.720014C137.338 0.559444 137.008 0.476082 136.673 0.476509H91.7988C91.4577 0.477001 91.1214 0.564004 90.8174 0.730457C90.5133 0.896911 90.25 1.13813 90.0489 1.43452C89.2518 2.61392 88.1578 4.87964 87.4732 8.97646L87.0372 8.89224C87.7366 4.70642 88.8661 2.37403 89.6906 1.15439C89.9328 0.797243 90.25 0.506586 90.6163 0.30601C90.9826 0.105434 91.3878 0.000593225 91.7988 1.29686e-06H136.673C137.076 -0.000416533 137.475 0.100135 137.836 0.293712C138.197 0.487289 138.512 0.768588 138.755 1.11538C138.998 1.46218 139.162 1.86497 139.235 2.29193C139.309 2.7189 139.289 3.15834 139.177 3.57553C137.305 10.5372 133.45 28.9836 138.072 49.8625C141.576 65.6914 139.891 72.1479 137.861 74.7769C136.522 76.5109 135.047 76.5987 134.763 76.5987Z" fill="#E6E6E6"/>
<path d="M126.677 85.2949C126.652 85.2949 126.636 85.2942 126.631 85.2939L123.626 85.2942V84.8177H126.642C126.712 84.8201 128.136 84.8637 129.449 83.1508C131.404 80.5979 133.011 74.2783 129.555 58.669C124.909 37.6799 128.784 19.1373 130.666 12.1393C130.759 11.7931 130.775 11.4285 130.714 11.0742C130.653 10.7199 130.517 10.3856 130.315 10.0979C130.114 9.81016 129.853 9.57679 129.553 9.41622C129.253 9.25565 128.922 9.17228 128.587 9.17271H83.7134C83.3722 9.1732 83.036 9.2602 82.7319 9.42665C82.4279 9.59311 82.1646 9.83432 81.9635 10.1307C81.1663 11.3101 80.0724 13.5758 79.3878 17.6727L78.9518 17.5884C79.6512 13.4026 80.7807 11.0702 81.6051 9.85058C81.8474 9.49344 82.1646 9.20278 82.5309 9.00221C82.8972 8.80163 83.3024 8.69679 83.7134 8.6962H128.587C128.991 8.69578 129.389 8.79634 129.751 8.98991C130.112 9.18349 130.426 9.46479 130.669 9.81158C130.912 10.1584 131.077 10.5612 131.15 10.9881C131.223 11.4151 131.203 11.8545 131.091 12.2717C129.219 19.2334 125.364 37.6798 129.986 58.5587C133.49 74.3876 131.806 80.8441 129.776 83.4731C128.437 85.2071 126.961 85.2949 126.677 85.2949Z" fill="#CCCCCC"/>
<path d="M121.901 67.2558C117.278 46.377 121.134 27.9291 123.007 20.9689C123.118 20.5517 123.138 20.1123 123.065 19.6854C122.991 19.2585 122.827 18.8558 122.584 18.5091C122.341 18.1623 122.027 17.8809 121.665 17.6872C121.304 17.4934 120.906 17.3926 120.503 17.3926H75.6276C75.2168 17.3931 74.8118 17.4977 74.4456 17.6981C74.0794 17.8986 73.7623 18.189 73.5201 18.546C71.7086 21.2252 67.9498 30.1097 72.1481 54.6929C74.3932 67.8445 74.3598 76.8111 73.6263 82.7181C73.2148 86.0441 72.58 88.3988 72.0046 89.9867L71.9433 90.1549C71.8221 90.4762 71.7589 90.8194 71.7571 91.1661C71.7529 91.5576 71.8258 91.9457 71.9712 92.3046C72.1166 92.6636 72.331 92.9853 72.6004 93.2486C72.7761 93.4257 72.9749 93.5741 73.1906 93.6891C73.3696 93.7874 73.559 93.862 73.7547 93.9114C73.954 93.9637 74.1584 93.9899 74.3635 93.9895H118.546C118.552 93.9895 118.566 93.9915 118.592 93.9915C118.875 93.9915 120.352 93.9034 121.69 92.1693C123.72 89.5402 125.404 83.0845 121.901 67.2558ZM121.363 91.8469C120.05 93.561 118.626 93.5169 118.557 93.5149H74.3635C74.0097 93.5148 73.6613 93.4215 73.3487 93.2431C73.0362 93.0647 72.769 92.8068 72.5706 92.4917C72.3961 92.2193 72.2788 91.9093 72.2271 91.5832C72.1753 91.257 72.1903 90.9227 72.2709 90.6035C72.292 90.5107 72.3194 90.4197 72.3528 90.3311C73.0099 88.5149 73.497 86.6327 73.8068 84.7125C74.8569 78.5552 75.0523 69.0539 72.5837 54.6068C68.4172 30.2058 72.1015 21.4555 73.8775 18.8263C74.079 18.5304 74.3424 18.2895 74.6464 18.1233C74.9505 17.957 75.2866 17.87 75.6276 17.8692H120.503C120.837 17.869 121.168 17.9524 121.467 18.113C121.767 18.2735 122.028 18.5068 122.229 18.7944C122.431 19.082 122.567 19.416 122.628 19.7701C122.689 20.1242 122.673 20.4886 122.58 20.8347C120.698 27.833 116.824 46.377 121.471 67.3659C124.926 82.9744 123.319 89.2939 121.363 91.8469Z" fill="#3F3D56"/>
<path d="M100.582 40.1276H77.4619C76.9919 40.1276 76.5412 39.9268 76.2089 39.5694C75.8765 39.2119 75.6898 38.7271 75.6898 38.2216C75.6898 37.7161 75.8765 37.2313 76.2089 36.8739C76.5412 36.5164 76.9919 36.3156 77.4619 36.3156H100.582C101.052 36.3156 101.503 36.5164 101.835 36.8739C102.167 37.2313 102.354 37.7161 102.354 38.2216C102.354 38.7271 102.167 39.2119 101.835 39.5694C101.503 39.9268 101.052 40.1276 100.582 40.1276Z" fill="#CCCCCC"/>
<path d="M100.582 48.3374H77.4619C76.9919 48.3374 76.5412 48.1366 76.2089 47.7791C75.8765 47.4217 75.6898 46.9369 75.6898 46.4314C75.6898 45.9259 75.8765 45.4411 76.2089 45.0836C76.5412 44.7262 76.9919 44.5254 77.4619 44.5254H100.582C101.052 44.5254 101.503 44.7262 101.835 45.0836C102.167 45.4411 102.354 45.9259 102.354 46.4314C102.354 46.9369 102.167 47.4217 101.835 47.7791C101.503 48.1366 101.052 48.3374 100.582 48.3374Z" fill="#CCCCCC"/>
<path d="M102.444 56.7474H79.3238C78.8538 56.7474 78.403 56.5466 78.0707 56.1891C77.7383 55.8317 77.5516 55.3469 77.5516 54.8414C77.5516 54.3358 77.7383 53.851 78.0707 53.4936C78.403 53.1361 78.8538 52.9353 79.3238 52.9353H102.444C102.914 52.9353 103.365 53.1361 103.697 53.4936C104.029 53.851 104.216 54.3358 104.216 54.8414C104.216 55.3469 104.029 55.8317 103.697 56.1891C103.365 56.5466 102.914 56.7474 102.444 56.7474Z" fill="#CCCCCC"/>
<path d="M103.747 65.5578H80.6269C80.1569 65.5578 79.7061 65.357 79.3738 64.9995C79.0414 64.6421 78.8547 64.1573 78.8547 63.6518C78.8547 63.1463 79.0414 62.6615 79.3738 62.304C79.7061 61.9466 80.1569 61.7458 80.6269 61.7458H103.747C104.217 61.7458 104.668 61.9466 105 62.304C105.332 62.6615 105.519 63.1463 105.519 63.6518C105.519 64.1573 105.332 64.6421 105 64.9995C104.668 65.357 104.217 65.5578 103.747 65.5578Z" fill="#CCCCCC"/>
<path d="M103.757 25.3282H87.143C86.9101 25.3284 86.6795 25.2793 86.4642 25.1836C86.249 25.088 86.0535 24.9476 85.8887 24.7706C85.724 24.5936 85.5933 24.3834 85.5041 24.152C85.4149 23.9206 85.369 23.6726 85.369 23.4221C85.369 23.1717 85.4149 22.9237 85.5041 22.6923C85.5933 22.4609 85.724 22.2507 85.8887 22.0737C86.0535 21.8967 86.249 21.7563 86.4642 21.6606C86.6795 21.565 86.9101 21.5159 87.143 21.5161H103.757C104.227 21.5161 104.678 21.7169 105.01 22.0744C105.342 22.4318 105.529 22.9166 105.529 23.4221C105.529 23.9276 105.342 24.4124 105.01 24.7699C104.678 25.1273 104.227 25.3282 103.757 25.3282Z" fill="#6C63FF"/>
<path d="M112.914 66.2549C114.251 66.2549 115.334 65.0894 115.334 63.6518C115.334 62.2141 114.251 61.0487 112.914 61.0487C111.577 61.0487 110.494 62.2141 110.494 63.6518C110.494 65.0894 111.577 66.2549 112.914 66.2549Z" fill="#CCCCCC"/>
<path d="M104.864 74.168H81.7439C81.2739 74.168 80.8232 73.9672 80.4908 73.6098C80.1585 73.2523 79.9718 72.7675 79.9718 72.262C79.9718 71.7565 80.1585 71.2717 80.4908 70.9142C80.8232 70.5568 81.2739 70.356 81.7439 70.356H104.864C105.334 70.356 105.785 70.5568 106.117 70.9142C106.449 71.2717 106.636 71.7565 106.636 72.262C106.636 72.7675 106.449 73.2523 106.117 73.6098C105.785 73.9672 105.334 74.168 104.864 74.168Z" fill="#CCCCCC"/>
<path d="M114.031 74.8651C115.368 74.8651 116.451 73.6996 116.451 72.262C116.451 70.8243 115.368 69.6589 114.031 69.6589C112.695 69.6589 111.611 70.8243 111.611 72.262C111.611 73.6996 112.695 74.8651 114.031 74.8651Z" fill="#CCCCCC"/>
</g>
<defs>
<clipPath id="clip0_7_21">
<rect width="158" height="94" fill="white"/>
</clipPath>
</defs>
</svg>
